<svg xmlns="http://www.w3.org/2000/svg" width="880" height="3868" viewBox="0 0 880 3868">
<style>text { font-family: -apple-system, BlinkMacSystemFont, "Segoe UI", Roboto, Helvetica, Arial, sans-serif; }</style>
<rect width="880" height="3868" fill="#0f0f0f"/>
<text x="440" y="28" text-anchor="middle" fill="#fff" font-size="26" font-weight="700" letter-spacing="-0.5">ironmark</text>
<text x="440" y="50" text-anchor="middle" fill="#888" font-size="13">benchmark results</text>
<g transform="translate(0,72)"><text x="440" y="24" text-anchor="middle" fill="#fff" font-size="20" font-weight="700">Native Rust</text>
<text x="440" y="46" text-anchor="middle" fill="#888" font-size="12">ironmark vs pulldown-cmark vs comrak vs markdown-rs — cargo bench (criterion)</text>
<rect x="160" y="60" width="10" height="10" rx="2" fill="#e8590c"/>
<text x="176" y="69" fill="#aaa" font-size="11">ironmark</text>
<rect x="300" y="60" width="10" height="10" rx="2" fill="#1971c2"/>
<text x="316" y="69" fill="#aaa" font-size="11">pulldown-cmark</text>
<rect x="440" y="60" width="10" height="10" rx="2" fill="#2f9e44"/>
<text x="456" y="69" fill="#aaa" font-size="11">comrak</text>
<rect x="580" y="60" width="10" height="10" rx="2" fill="#c2185b"/>
<text x="596" y="69" fill="#aaa" font-size="11">markdown-rs</text>
<text x="32" y="114" fill="#ccc" font-size="14" font-weight="600">CommonMark Spec</text>
<rect x="32" y="124" width="816" height="166" rx="6" fill="#1a1a1a" stroke="#2a2a2a"/>
<text x="48" y="152" fill="#aaa" font-size="12" font-weight="500">commonmark_spec (15.2 KB)</text>
<rect x="675.5" y="140" width="156.5" height="18" rx="3" fill="none" stroke="#e8590c" stroke-opacity="0.6"/>
<text x="683.5" y="151.5" fill="#fff" font-size="10" font-weight="600">ironmark</text>
<text x="741.1" y="151.5" fill="#8f8" font-size="9.5">1.1x faster</text>
<text x="154" y="182" text-anchor="end" fill="#fff" font-size="11" font-weight="600">ironmark</text>
<rect x="170" y="170" width="493" height="20" rx="3" fill="#252525"/>
<rect x="170" y="170" width="493.0" height="20" rx="3" fill="#e8590c"/>
<text x="746" y="182" text-anchor="end" fill="#e0e0e0" font-size="11">191.5 µs</text>
<text x="828" y="182" text-anchor="end" fill="#666" font-size="10">77.6 MB/s</text>
<text x="154" y="210" text-anchor="end" fill="#777" font-size="11" font-weight="400">pulldown-cmark</text>
<rect x="170" y="198" width="493" height="20" rx="3" fill="#252525"/>
<rect x="170" y="198" width="454.8" height="20" rx="3" fill="#1971c2"/>
<text x="746" y="210" text-anchor="end" fill="#e0e0e0" font-size="11">207.6 µs</text>
<text x="828" y="210" text-anchor="end" fill="#666" font-size="10">71.5 MB/s</text>
<text x="154" y="238" text-anchor="end" fill="#777" font-size="11" font-weight="400">comrak</text>
<rect x="170" y="226" width="493" height="20" rx="3" fill="#252525"/>
<rect x="170" y="226" width="129.8" height="20" rx="3" fill="#2f9e44"/>
<text x="746" y="238" text-anchor="end" fill="#e0e0e0" font-size="11">727.4 µs</text>
<text x="828" y="238" text-anchor="end" fill="#666" font-size="10">20.4 MB/s</text>
<text x="154" y="266" text-anchor="end" fill="#777" font-size="11" font-weight="400">markdown-rs</text>
<rect x="170" y="254" width="493" height="20" rx="3" fill="#252525"/>
<rect x="170" y="254" width="18.9" height="20" rx="3" fill="#c2185b"/>
<text x="746" y="266" text-anchor="end" fill="#e0e0e0" font-size="11">5.00 ms</text>
<text x="828" y="266" text-anchor="end" fill="#666" font-size="10">3.0 MB/s</text>
<text x="32" y="328" fill="#ccc" font-size="14" font-weight="600">Document Sizes</text>
<rect x="32" y="338" width="816" height="166" rx="6" fill="#1a1a1a" stroke="#2a2a2a"/>
<text x="48" y="366" fill="#aaa" font-size="12" font-weight="500">1000 bytes (1000 B)</text>
<rect x="675.5" y="354" width="156.5" height="18" rx="3" fill="none" stroke="#e8590c" stroke-opacity="0.6"/>
<text x="683.5" y="365.5" fill="#fff" font-size="10" font-weight="600">ironmark</text>
<text x="741.1" y="365.5" fill="#8f8" font-size="9.5">1.7x faster</text>
<text x="154" y="396" text-anchor="end" fill="#fff" font-size="11" font-weight="600">ironmark</text>
<rect x="170" y="384" width="493" height="20" rx="3" fill="#252525"/>
<rect x="170" y="384" width="493.0" height="20" rx="3" fill="#e8590c"/>
<text x="746" y="396" text-anchor="end" fill="#e0e0e0" font-size="11">5.2 µs</text>
<text x="828" y="396" text-anchor="end" fill="#666" font-size="10">184.8 MB/s</text>
<text x="154" y="424" text-anchor="end" fill="#777" font-size="11" font-weight="400">pulldown-cmark</text>
<rect x="170" y="412" width="493" height="20" rx="3" fill="#252525"/>
<rect x="170" y="412" width="289.8" height="20" rx="3" fill="#1971c2"/>
<text x="746" y="424" text-anchor="end" fill="#e0e0e0" font-size="11">8.8 µs</text>
<text x="828" y="424" text-anchor="end" fill="#666" font-size="10">108.6 MB/s</text>
<text x="154" y="452" text-anchor="end" fill="#777" font-size="11" font-weight="400">comrak</text>
<rect x="170" y="440" width="493" height="20" rx="3" fill="#252525"/>
<rect x="170" y="440" width="90.8" height="20" rx="3" fill="#2f9e44"/>
<text x="746" y="452" text-anchor="end" fill="#e0e0e0" font-size="11">28.0 µs</text>
<text x="828" y="452" text-anchor="end" fill="#666" font-size="10">34.0 MB/s</text>
<text x="154" y="480" text-anchor="end" fill="#777" font-size="11" font-weight="400">markdown-rs</text>
<rect x="170" y="468" width="493" height="20" rx="3" fill="#252525"/>
<rect x="170" y="468" width="17.6" height="20" rx="3" fill="#c2185b"/>
<text x="746" y="480" text-anchor="end" fill="#e0e0e0" font-size="11">144.2 µs</text>
<text x="828" y="480" text-anchor="end" fill="#666" font-size="10">6.6 MB/s</text>
<rect x="32" y="512" width="816" height="166" rx="6" fill="#1a1a1a" stroke="#2a2a2a"/>
<text x="48" y="540" fill="#aaa" font-size="12" font-weight="500">10000 bytes (9.8 KB)</text>
<rect x="675.5" y="528" width="156.5" height="18" rx="3" fill="none" stroke="#e8590c" stroke-opacity="0.6"/>
<text x="683.5" y="539.5" fill="#fff" font-size="10" font-weight="600">ironmark</text>
<text x="741.1" y="539.5" fill="#8f8" font-size="9.5">1.8x faster</text>
<text x="154" y="570" text-anchor="end" fill="#fff" font-size="11" font-weight="600">ironmark</text>
<rect x="170" y="558" width="493" height="20" rx="3" fill="#252525"/>
<rect x="170" y="558" width="493.0" height="20" rx="3" fill="#e8590c"/>
<text x="746" y="570" text-anchor="end" fill="#e0e0e0" font-size="11">47.2 µs</text>
<text x="828" y="570" text-anchor="end" fill="#666" font-size="10">202.0 MB/s</text>
<text x="154" y="598" text-anchor="end" fill="#777" font-size="11" font-weight="400">pulldown-cmark</text>
<rect x="170" y="586" width="493" height="20" rx="3" fill="#252525"/>
<rect x="170" y="586" width="276.6" height="20" rx="3" fill="#1971c2"/>
<text x="746" y="598" text-anchor="end" fill="#e0e0e0" font-size="11">84.1 µs</text>
<text x="828" y="598" text-anchor="end" fill="#666" font-size="10">113.3 MB/s</text>
<text x="154" y="626" text-anchor="end" fill="#777" font-size="11" font-weight="400">comrak</text>
<rect x="170" y="614" width="493" height="20" rx="3" fill="#252525"/>
<rect x="170" y="614" width="85.1" height="20" rx="3" fill="#2f9e44"/>
<text x="746" y="626" text-anchor="end" fill="#e0e0e0" font-size="11">273.6 µs</text>
<text x="828" y="626" text-anchor="end" fill="#666" font-size="10">34.9 MB/s</text>
<text x="154" y="654" text-anchor="end" fill="#777" font-size="11" font-weight="400">markdown-rs</text>
<rect x="170" y="642" width="493" height="20" rx="3" fill="#252525"/>
<rect x="170" y="642" width="16.1" height="20" rx="3" fill="#c2185b"/>
<text x="746" y="654" text-anchor="end" fill="#e0e0e0" font-size="11">1.44 ms</text>
<text x="828" y="654" text-anchor="end" fill="#666" font-size="10">6.6 MB/s</text>
<rect x="32" y="686" width="816" height="166" rx="6" fill="#1a1a1a" stroke="#2a2a2a"/>
<text x="48" y="714" fill="#aaa" font-size="12" font-weight="500">100000 bytes (97.7 KB)</text>
<rect x="675.5" y="702" width="156.5" height="18" rx="3" fill="none" stroke="#e8590c" stroke-opacity="0.6"/>
<text x="683.5" y="713.5" fill="#fff" font-size="10" font-weight="600">ironmark</text>
<text x="741.1" y="713.5" fill="#8f8" font-size="9.5">1.7x faster</text>
<text x="154" y="744" text-anchor="end" fill="#fff" font-size="11" font-weight="600">ironmark</text>
<rect x="170" y="732" width="493" height="20" rx="3" fill="#252525"/>
<rect x="170" y="732" width="493.0" height="20" rx="3" fill="#e8590c"/>
<text x="746" y="744" text-anchor="end" fill="#e0e0e0" font-size="11">469.0 µs</text>
<text x="828" y="744" text-anchor="end" fill="#666" font-size="10">203.4 MB/s</text>
<text x="154" y="772" text-anchor="end" fill="#777" font-size="11" font-weight="400">pulldown-cmark</text>
<rect x="170" y="760" width="493" height="20" rx="3" fill="#252525"/>
<rect x="170" y="760" width="286.1" height="20" rx="3" fill="#1971c2"/>
<text x="746" y="772" text-anchor="end" fill="#e0e0e0" font-size="11">808.1 µs</text>
<text x="828" y="772" text-anchor="end" fill="#666" font-size="10">118.0 MB/s</text>
<text x="154" y="800" text-anchor="end" fill="#777" font-size="11" font-weight="400">comrak</text>
<rect x="170" y="788" width="493" height="20" rx="3" fill="#252525"/>
<rect x="170" y="788" width="84.9" height="20" rx="3" fill="#2f9e44"/>
<text x="746" y="800" text-anchor="end" fill="#e0e0e0" font-size="11">2.72 ms</text>
<text x="828" y="800" text-anchor="end" fill="#666" font-size="10">35.0 MB/s</text>
<text x="154" y="828" text-anchor="end" fill="#777" font-size="11" font-weight="400">markdown-rs</text>
<rect x="170" y="816" width="493" height="20" rx="3" fill="#252525"/>
<rect x="170" y="816" width="14.2" height="20" rx="3" fill="#c2185b"/>
<text x="746" y="828" text-anchor="end" fill="#e0e0e0" font-size="11">16.31 ms</text>
<text x="828" y="828" text-anchor="end" fill="#666" font-size="10">5.8 MB/s</text>
<rect x="32" y="860" width="816" height="166" rx="6" fill="#1a1a1a" stroke="#2a2a2a"/>
<text x="48" y="888" fill="#aaa" font-size="12" font-weight="500">1000000 bytes (976.6 KB)</text>
<rect x="675.5" y="876" width="156.5" height="18" rx="3" fill="none" stroke="#e8590c" stroke-opacity="0.6"/>
<text x="683.5" y="887.5" fill="#fff" font-size="10" font-weight="600">ironmark</text>
<text x="741.1" y="887.5" fill="#8f8" font-size="9.5">2.1x faster</text>
<text x="154" y="918" text-anchor="end" fill="#fff" font-size="11" font-weight="600">ironmark</text>
<rect x="170" y="906" width="493" height="20" rx="3" fill="#252525"/>
<rect x="170" y="906" width="493.0" height="20" rx="3" fill="#e8590c"/>
<text x="746" y="918" text-anchor="end" fill="#e0e0e0" font-size="11">4.72 ms</text>
<text x="828" y="918" text-anchor="end" fill="#666" font-size="10">202.0 MB/s</text>
<text x="154" y="946" text-anchor="end" fill="#777" font-size="11" font-weight="400">pulldown-cmark</text>
<rect x="170" y="934" width="493" height="20" rx="3" fill="#252525"/>
<rect x="170" y="934" width="230.1" height="20" rx="3" fill="#1971c2"/>
<text x="746" y="946" text-anchor="end" fill="#e0e0e0" font-size="11">10.11 ms</text>
<text x="828" y="946" text-anchor="end" fill="#666" font-size="10">94.3 MB/s</text>
<text x="154" y="974" text-anchor="end" fill="#777" font-size="11" font-weight="400">comrak</text>
<rect x="170" y="962" width="493" height="20" rx="3" fill="#252525"/>
<rect x="170" y="962" width="79.6" height="20" rx="3" fill="#2f9e44"/>
<text x="746" y="974" text-anchor="end" fill="#e0e0e0" font-size="11">29.24 ms</text>
<text x="828" y="974" text-anchor="end" fill="#666" font-size="10">32.6 MB/s</text>
<text x="154" y="1002" text-anchor="end" fill="#777" font-size="11" font-weight="400">markdown-rs</text>
<rect x="170" y="990" width="493" height="20" rx="3" fill="#252525"/>
<rect x="170" y="990" width="6.4" height="20" rx="3" fill="#c2185b"/>
<text x="746" y="1002" text-anchor="end" fill="#e0e0e0" font-size="11">363.33 ms</text>
<text x="828" y="1002" text-anchor="end" fill="#666" font-size="10">2.6 MB/s</text>
<rect x="32" y="1034" width="816" height="166" rx="6" fill="#1a1a1a" stroke="#2a2a2a"/>
<text x="48" y="1062" fill="#aaa" font-size="12" font-weight="500">5000000 bytes (4.8 MB)</text>
<rect x="675.5" y="1050" width="156.5" height="18" rx="3" fill="none" stroke="#e8590c" stroke-opacity="0.6"/>
<text x="683.5" y="1061.5" fill="#fff" font-size="10" font-weight="600">ironmark</text>
<text x="741.1" y="1061.5" fill="#8f8" font-size="9.5">2.2x faster</text>
<text x="154" y="1092" text-anchor="end" fill="#fff" font-size="11" font-weight="600">ironmark</text>
<rect x="170" y="1080" width="493" height="20" rx="3" fill="#252525"/>
<rect x="170" y="1080" width="493.0" height="20" rx="3" fill="#e8590c"/>
<text x="746" y="1092" text-anchor="end" fill="#e0e0e0" font-size="11">30.17 ms</text>
<text x="828" y="1092" text-anchor="end" fill="#666" font-size="10">158.0 MB/s</text>
<text x="154" y="1120" text-anchor="end" fill="#777" font-size="11" font-weight="400">pulldown-cmark</text>
<rect x="170" y="1108" width="493" height="20" rx="3" fill="#252525"/>
<rect x="170" y="1108" width="223.1" height="20" rx="3" fill="#1971c2"/>
<text x="746" y="1120" text-anchor="end" fill="#e0e0e0" font-size="11">66.66 ms</text>
<text x="828" y="1120" text-anchor="end" fill="#666" font-size="10">71.5 MB/s</text>
<text x="154" y="1148" text-anchor="end" fill="#777" font-size="11" font-weight="400">comrak</text>
<rect x="170" y="1136" width="493" height="20" rx="3" fill="#252525"/>
<rect x="170" y="1136" width="78.8" height="20" rx="3" fill="#2f9e44"/>
<text x="746" y="1148" text-anchor="end" fill="#e0e0e0" font-size="11">188.86 ms</text>
<text x="828" y="1148" text-anchor="end" fill="#666" font-size="10">25.2 MB/s</text>
<text x="154" y="1176" text-anchor="end" fill="#777" font-size="11" font-weight="400">markdown-rs</text>
<rect x="170" y="1164" width="493" height="20" rx="3" fill="#252525"/>
<rect x="170" y="1164" width="2.0" height="20" rx="3" fill="#c2185b"/>
<text x="746" y="1176" text-anchor="end" fill="#e0e0e0" font-size="11">7390.97 ms</text>
<text x="828" y="1176" text-anchor="end" fill="#666" font-size="10">0.6 MB/s</text>
<text x="32" y="1238" fill="#ccc" font-size="14" font-weight="600">Block Types</text>
<rect x="32" y="1248" width="816" height="166" rx="6" fill="#1a1a1a" stroke="#2a2a2a"/>
<text x="48" y="1276" fill="#aaa" font-size="12" font-weight="500">code_blocks (5.2 KB)</text>
<rect x="636.5" y="1264" width="195.5" height="18" rx="3" fill="none" stroke="#1971c2" stroke-opacity="0.6"/>
<text x="644.5" y="1275.5" fill="#fff" font-size="10" font-weight="600">pulldown-cmark</text>
<text x="739.3" y="1275.5" fill="#8f8" font-size="9.5">1.2x faster</text>
<text x="154" y="1306" text-anchor="end" fill="#fff" font-size="11" font-weight="600">pulldown-cmark</text>
<rect x="170" y="1294" width="493" height="20" rx="3" fill="#252525"/>
<rect x="170" y="1294" width="493.0" height="20" rx="3" fill="#1971c2"/>
<text x="746" y="1306" text-anchor="end" fill="#e0e0e0" font-size="11">15.8 µs</text>
<text x="828" y="1306" text-anchor="end" fill="#666" font-size="10">319.2 MB/s</text>
<text x="154" y="1334" text-anchor="end" fill="#777" font-size="11" font-weight="400">ironmark</text>
<rect x="170" y="1322" width="493" height="20" rx="3" fill="#252525"/>
<rect x="170" y="1322" width="421.7" height="20" rx="3" fill="#e8590c"/>
<text x="746" y="1334" text-anchor="end" fill="#e0e0e0" font-size="11">18.5 µs</text>
<text x="828" y="1334" text-anchor="end" fill="#666" font-size="10">273.0 MB/s</text>
<text x="154" y="1362" text-anchor="end" fill="#777" font-size="11" font-weight="400">comrak</text>
<rect x="170" y="1350" width="493" height="20" rx="3" fill="#252525"/>
<rect x="170" y="1350" width="81.9" height="20" rx="3" fill="#2f9e44"/>
<text x="746" y="1362" text-anchor="end" fill="#e0e0e0" font-size="11">95.2 µs</text>
<text x="828" y="1362" text-anchor="end" fill="#666" font-size="10">53.0 MB/s</text>
<text x="154" y="1390" text-anchor="end" fill="#777" font-size="11" font-weight="400">markdown-rs</text>
<rect x="170" y="1378" width="493" height="20" rx="3" fill="#252525"/>
<rect x="170" y="1378" width="17.6" height="20" rx="3" fill="#c2185b"/>
<text x="746" y="1390" text-anchor="end" fill="#e0e0e0" font-size="11">442.3 µs</text>
<text x="828" y="1390" text-anchor="end" fill="#666" font-size="10">11.4 MB/s</text>
<rect x="32" y="1422" width="816" height="166" rx="6" fill="#1a1a1a" stroke="#2a2a2a"/>
<text x="48" y="1450" fill="#aaa" font-size="12" font-weight="500">headings (10.3 KB)</text>
<rect x="675.5" y="1438" width="156.5" height="18" rx="3" fill="none" stroke="#e8590c" stroke-opacity="0.6"/>
<text x="683.5" y="1449.5" fill="#fff" font-size="10" font-weight="600">ironmark</text>
<text x="741.1" y="1449.5" fill="#8f8" font-size="9.5">1.1x faster</text>
<text x="154" y="1480" text-anchor="end" fill="#fff" font-size="11" font-weight="600">ironmark</text>
<rect x="170" y="1468" width="493" height="20" rx="3" fill="#252525"/>
<rect x="170" y="1468" width="493.0" height="20" rx="3" fill="#e8590c"/>
<text x="746" y="1480" text-anchor="end" fill="#e0e0e0" font-size="11">35.8 µs</text>
<text x="828" y="1480" text-anchor="end" fill="#666" font-size="10">282.3 MB/s</text>
<text x="154" y="1508" text-anchor="end" fill="#777" font-size="11" font-weight="400">pulldown-cmark</text>
<rect x="170" y="1496" width="493" height="20" rx="3" fill="#252525"/>
<rect x="170" y="1496" width="440.1" height="20" rx="3" fill="#1971c2"/>
<text x="746" y="1508" text-anchor="end" fill="#e0e0e0" font-size="11">40.1 µs</text>
<text x="828" y="1508" text-anchor="end" fill="#666" font-size="10">252.0 MB/s</text>
<text x="154" y="1536" text-anchor="end" fill="#777" font-size="11" font-weight="400">comrak</text>
<rect x="170" y="1524" width="493" height="20" rx="3" fill="#252525"/>
<rect x="170" y="1524" width="98.3" height="20" rx="3" fill="#2f9e44"/>
<text x="746" y="1536" text-anchor="end" fill="#e0e0e0" font-size="11">179.3 µs</text>
<text x="828" y="1536" text-anchor="end" fill="#666" font-size="10">56.3 MB/s</text>
<text x="154" y="1564" text-anchor="end" fill="#777" font-size="11" font-weight="400">markdown-rs</text>
<rect x="170" y="1552" width="493" height="20" rx="3" fill="#252525"/>
<rect x="170" y="1552" width="15.9" height="20" rx="3" fill="#c2185b"/>
<text x="746" y="1564" text-anchor="end" fill="#e0e0e0" font-size="11">1.11 ms</text>
<text x="828" y="1564" text-anchor="end" fill="#666" font-size="10">9.1 MB/s</text>
<rect x="32" y="1596" width="816" height="166" rx="6" fill="#1a1a1a" stroke="#2a2a2a"/>
<text x="48" y="1624" fill="#aaa" font-size="12" font-weight="500">nested_lists (2.9 KB)</text>
<rect x="675.5" y="1612" width="156.5" height="18" rx="3" fill="none" stroke="#e8590c" stroke-opacity="0.6"/>
<text x="683.5" y="1623.5" fill="#fff" font-size="10" font-weight="600">ironmark</text>
<text x="741.1" y="1623.5" fill="#8f8" font-size="9.5">1.3x faster</text>
<text x="154" y="1654" text-anchor="end" fill="#fff" font-size="11" font-weight="600">ironmark</text>
<rect x="170" y="1642" width="493" height="20" rx="3" fill="#252525"/>
<rect x="170" y="1642" width="493.0" height="20" rx="3" fill="#e8590c"/>
<text x="746" y="1654" text-anchor="end" fill="#e0e0e0" font-size="11">12.7 µs</text>
<text x="828" y="1654" text-anchor="end" fill="#666" font-size="10">221.6 MB/s</text>
<text x="154" y="1682" text-anchor="end" fill="#777" font-size="11" font-weight="400">pulldown-cmark</text>
<rect x="170" y="1670" width="493" height="20" rx="3" fill="#252525"/>
<rect x="170" y="1670" width="378.4" height="20" rx="3" fill="#1971c2"/>
<text x="746" y="1682" text-anchor="end" fill="#e0e0e0" font-size="11">16.5 µs</text>
<text x="828" y="1682" text-anchor="end" fill="#666" font-size="10">170.1 MB/s</text>
<text x="154" y="1710" text-anchor="end" fill="#777" font-size="11" font-weight="400">comrak</text>
<rect x="170" y="1698" width="493" height="20" rx="3" fill="#252525"/>
<rect x="170" y="1698" width="154.4" height="20" rx="3" fill="#2f9e44"/>
<text x="746" y="1710" text-anchor="end" fill="#e0e0e0" font-size="11">40.4 µs</text>
<text x="828" y="1710" text-anchor="end" fill="#666" font-size="10">69.4 MB/s</text>
<text x="154" y="1738" text-anchor="end" fill="#777" font-size="11" font-weight="400">markdown-rs</text>
<rect x="170" y="1726" width="493" height="20" rx="3" fill="#252525"/>
<rect x="170" y="1726" width="7.8" height="20" rx="3" fill="#c2185b"/>
<text x="746" y="1738" text-anchor="end" fill="#e0e0e0" font-size="11">800.5 µs</text>
<text x="828" y="1738" text-anchor="end" fill="#666" font-size="10">3.5 MB/s</text>
<rect x="32" y="1770" width="816" height="166" rx="6" fill="#1a1a1a" stroke="#2a2a2a"/>
<text x="48" y="1798" fill="#aaa" font-size="12" font-weight="500">table (8.0 KB)</text>
<rect x="675.5" y="1786" width="156.5" height="18" rx="3" fill="none" stroke="#e8590c" stroke-opacity="0.6"/>
<text x="683.5" y="1797.5" fill="#fff" font-size="10" font-weight="600">ironmark</text>
<text x="741.1" y="1797.5" fill="#8f8" font-size="9.5">1.0x faster</text>
<text x="154" y="1828" text-anchor="end" fill="#fff" font-size="11" font-weight="600">ironmark</text>
<rect x="170" y="1816" width="493" height="20" rx="3" fill="#252525"/>
<rect x="170" y="1816" width="493.0" height="20" rx="3" fill="#e8590c"/>
<text x="746" y="1828" text-anchor="end" fill="#e0e0e0" font-size="11">50.3 µs</text>
<text x="828" y="1828" text-anchor="end" fill="#666" font-size="10">156.1 MB/s</text>
<text x="154" y="1856" text-anchor="end" fill="#777" font-size="11" font-weight="400">pulldown-cmark</text>
<rect x="170" y="1844" width="493" height="20" rx="3" fill="#252525"/>
<rect x="170" y="1844" width="482.2" height="20" rx="3" fill="#1971c2"/>
<text x="746" y="1856" text-anchor="end" fill="#e0e0e0" font-size="11">51.4 µs</text>
<text x="828" y="1856" text-anchor="end" fill="#666" font-size="10">152.7 MB/s</text>
<text x="154" y="1884" text-anchor="end" fill="#777" font-size="11" font-weight="400">markdown-rs</text>
<rect x="170" y="1872" width="493" height="20" rx="3" fill="#252525"/>
<rect x="170" y="1872" width="86.9" height="20" rx="3" fill="#c2185b"/>
<text x="746" y="1884" text-anchor="end" fill="#e0e0e0" font-size="11">285.3 µs</text>
<text x="828" y="1884" text-anchor="end" fill="#666" font-size="10">27.5 MB/s</text>
<text x="154" y="1912" text-anchor="end" fill="#777" font-size="11" font-weight="400">comrak</text>
<rect x="170" y="1900" width="493" height="20" rx="3" fill="#252525"/>
<rect x="170" y="1900" width="61.6" height="20" rx="3" fill="#2f9e44"/>
<text x="746" y="1912" text-anchor="end" fill="#e0e0e0" font-size="11">402.9 µs</text>
<text x="828" y="1912" text-anchor="end" fill="#666" font-size="10">19.5 MB/s</text>
<text x="32" y="1974" fill="#ccc" font-size="14" font-weight="600">Inline-heavy</text>
<rect x="32" y="1984" width="816" height="166" rx="6" fill="#1a1a1a" stroke="#2a2a2a"/>
<text x="48" y="2012" fill="#aaa" font-size="12" font-weight="500">inline_heavy (16.7 KB)</text>
<rect x="675.5" y="2000" width="156.5" height="18" rx="3" fill="none" stroke="#e8590c" stroke-opacity="0.6"/>
<text x="683.5" y="2011.5" fill="#fff" font-size="10" font-weight="600">ironmark</text>
<text x="741.1" y="2011.5" fill="#8f8" font-size="9.5">1.7x faster</text>
<text x="154" y="2042" text-anchor="end" fill="#fff" font-size="11" font-weight="600">ironmark</text>
<rect x="170" y="2030" width="493" height="20" rx="3" fill="#252525"/>
<rect x="170" y="2030" width="493.0" height="20" rx="3" fill="#e8590c"/>
<text x="746" y="2042" text-anchor="end" fill="#e0e0e0" font-size="11">81.1 µs</text>
<text x="828" y="2042" text-anchor="end" fill="#666" font-size="10">201.0 MB/s</text>
<text x="154" y="2070" text-anchor="end" fill="#777" font-size="11" font-weight="400">pulldown-cmark</text>
<rect x="170" y="2058" width="493" height="20" rx="3" fill="#252525"/>
<rect x="170" y="2058" width="287.9" height="20" rx="3" fill="#1971c2"/>
<text x="746" y="2070" text-anchor="end" fill="#e0e0e0" font-size="11">138.8 µs</text>
<text x="828" y="2070" text-anchor="end" fill="#666" font-size="10">117.4 MB/s</text>
<text x="154" y="2098" text-anchor="end" fill="#777" font-size="11" font-weight="400">comrak</text>
<rect x="170" y="2086" width="493" height="20" rx="3" fill="#252525"/>
<rect x="170" y="2086" width="85.4" height="20" rx="3" fill="#2f9e44"/>
<text x="746" y="2098" text-anchor="end" fill="#e0e0e0" font-size="11">468.2 µs</text>
<text x="828" y="2098" text-anchor="end" fill="#666" font-size="10">34.8 MB/s</text>
<text x="154" y="2126" text-anchor="end" fill="#777" font-size="11" font-weight="400">markdown-rs</text>
<rect x="170" y="2114" width="493" height="20" rx="3" fill="#252525"/>
<rect x="170" y="2114" width="16.0" height="20" rx="3" fill="#c2185b"/>
<text x="746" y="2126" text-anchor="end" fill="#e0e0e0" font-size="11">2.51 ms</text>
<text x="828" y="2126" text-anchor="end" fill="#666" font-size="10">6.5 MB/s</text></g>
<g transform="translate(0,2254)"><text x="440" y="24" text-anchor="middle" fill="#fff" font-size="20" font-weight="700">WASM (Node.js)</text>
<text x="440" y="46" text-anchor="middle" fill="#888" font-size="12">ironmark vs markdown-wasm vs md4w — median of 500 iterations</text>
<rect x="230" y="60" width="10" height="10" rx="2" fill="#e8590c"/>
<text x="246" y="69" fill="#aaa" font-size="11">ironmark</text>
<rect x="370" y="60" width="10" height="10" rx="2" fill="#7048e8"/>
<text x="386" y="69" fill="#aaa" font-size="11">markdown-wasm</text>
<rect x="510" y="60" width="10" height="10" rx="2" fill="#0ea5e9"/>
<text x="526" y="69" fill="#aaa" font-size="11">md4w</text>
<text x="32" y="114" fill="#ccc" font-size="14" font-weight="600">CommonMark Spec</text>
<rect x="32" y="124" width="816" height="138" rx="6" fill="#1a1a1a" stroke="#2a2a2a"/>
<text x="48" y="152" fill="#aaa" font-size="12" font-weight="500">spec (all examples) (15.1 KB)</text>
<rect x="675.5" y="140" width="156.5" height="18" rx="3" fill="none" stroke="#e8590c" stroke-opacity="0.6"/>
<text x="683.5" y="151.5" fill="#fff" font-size="10" font-weight="600">ironmark</text>
<text x="741.1" y="151.5" fill="#8f8" font-size="9.5">1.2x faster</text>
<text x="154" y="182" text-anchor="end" fill="#fff" font-size="11" font-weight="600">ironmark</text>
<rect x="170" y="170" width="493" height="20" rx="3" fill="#252525"/>
<rect x="170" y="170" width="493.0" height="20" rx="3" fill="#e8590c"/>
<text x="746" y="182" text-anchor="end" fill="#e0e0e0" font-size="11">317.0 µs</text>
<text x="828" y="182" text-anchor="end" fill="#666" font-size="10">46.5 MB/s</text>
<text x="154" y="210" text-anchor="end" fill="#777" font-size="11" font-weight="400">md4w</text>
<rect x="170" y="198" width="493" height="20" rx="3" fill="#252525"/>
<rect x="170" y="198" width="419.2" height="20" rx="3" fill="#0ea5e9"/>
<text x="746" y="210" text-anchor="end" fill="#e0e0e0" font-size="11">372.7 µs</text>
<text x="828" y="210" text-anchor="end" fill="#666" font-size="10">39.6 MB/s</text>
<text x="154" y="238" text-anchor="end" fill="#777" font-size="11" font-weight="400">markdown-wasm</text>
<rect x="170" y="226" width="493" height="20" rx="3" fill="#252525"/>
<rect x="170" y="226" width="407.7" height="20" rx="3" fill="#7048e8"/>
<text x="746" y="238" text-anchor="end" fill="#e0e0e0" font-size="11">383.3 µs</text>
<text x="828" y="238" text-anchor="end" fill="#666" font-size="10">38.5 MB/s</text>
<text x="32" y="300" fill="#ccc" font-size="14" font-weight="600">Document Sizes</text>
<rect x="32" y="310" width="816" height="138" rx="6" fill="#1a1a1a" stroke="#2a2a2a"/>
<text x="48" y="338" fill="#aaa" font-size="12" font-weight="500">mixed 1000 B (1000 B)</text>
<rect x="675.5" y="326" width="156.5" height="18" rx="3" fill="none" stroke="#e8590c" stroke-opacity="0.6"/>
<text x="683.5" y="337.5" fill="#fff" font-size="10" font-weight="600">ironmark</text>
<text x="741.1" y="337.5" fill="#8f8" font-size="9.5">1.4x faster</text>
<text x="154" y="368" text-anchor="end" fill="#fff" font-size="11" font-weight="600">ironmark</text>
<rect x="170" y="356" width="493" height="20" rx="3" fill="#252525"/>
<rect x="170" y="356" width="493.0" height="20" rx="3" fill="#e8590c"/>
<text x="746" y="368" text-anchor="end" fill="#e0e0e0" font-size="11">10.5 µs</text>
<text x="828" y="368" text-anchor="end" fill="#666" font-size="10">90.8 MB/s</text>
<text x="154" y="396" text-anchor="end" fill="#777" font-size="11" font-weight="400">markdown-wasm</text>
<rect x="170" y="384" width="493" height="20" rx="3" fill="#252525"/>
<rect x="170" y="384" width="353.0" height="20" rx="3" fill="#7048e8"/>
<text x="746" y="396" text-anchor="end" fill="#e0e0e0" font-size="11">14.7 µs</text>
<text x="828" y="396" text-anchor="end" fill="#666" font-size="10">65.0 MB/s</text>
<text x="154" y="424" text-anchor="end" fill="#777" font-size="11" font-weight="400">md4w</text>
<rect x="170" y="412" width="493" height="20" rx="3" fill="#252525"/>
<rect x="170" y="412" width="336.7" height="20" rx="3" fill="#0ea5e9"/>
<text x="746" y="424" text-anchor="end" fill="#e0e0e0" font-size="11">15.4 µs</text>
<text x="828" y="424" text-anchor="end" fill="#666" font-size="10">62.0 MB/s</text>
<rect x="32" y="456" width="816" height="138" rx="6" fill="#1a1a1a" stroke="#2a2a2a"/>
<text x="48" y="484" fill="#aaa" font-size="12" font-weight="500">mixed 9.8 KB (9.8 KB)</text>
<rect x="675.5" y="472" width="156.5" height="18" rx="3" fill="none" stroke="#e8590c" stroke-opacity="0.6"/>
<text x="683.5" y="483.5" fill="#fff" font-size="10" font-weight="600">ironmark</text>
<text x="741.1" y="483.5" fill="#8f8" font-size="9.5">1.4x faster</text>
<text x="154" y="514" text-anchor="end" fill="#fff" font-size="11" font-weight="600">ironmark</text>
<rect x="170" y="502" width="493" height="20" rx="3" fill="#252525"/>
<rect x="170" y="502" width="493.0" height="20" rx="3" fill="#e8590c"/>
<text x="746" y="514" text-anchor="end" fill="#e0e0e0" font-size="11">95.3 µs</text>
<text x="828" y="514" text-anchor="end" fill="#666" font-size="10">100.1 MB/s</text>
<text x="154" y="542" text-anchor="end" fill="#777" font-size="11" font-weight="400">md4w</text>
<rect x="170" y="530" width="493" height="20" rx="3" fill="#252525"/>
<rect x="170" y="530" width="353.4" height="20" rx="3" fill="#0ea5e9"/>
<text x="746" y="542" text-anchor="end" fill="#e0e0e0" font-size="11">132.9 µs</text>
<text x="828" y="542" text-anchor="end" fill="#666" font-size="10">71.7 MB/s</text>
<text x="154" y="570" text-anchor="end" fill="#777" font-size="11" font-weight="400">markdown-wasm</text>
<rect x="170" y="558" width="493" height="20" rx="3" fill="#252525"/>
<rect x="170" y="558" width="352.7" height="20" rx="3" fill="#7048e8"/>
<text x="746" y="570" text-anchor="end" fill="#e0e0e0" font-size="11">133.2 µs</text>
<text x="828" y="570" text-anchor="end" fill="#666" font-size="10">71.6 MB/s</text>
<rect x="32" y="602" width="816" height="138" rx="6" fill="#1a1a1a" stroke="#2a2a2a"/>
<text x="48" y="630" fill="#aaa" font-size="12" font-weight="500">mixed 97.7 KB (97.7 KB)</text>
<rect x="675.5" y="618" width="156.5" height="18" rx="3" fill="none" stroke="#e8590c" stroke-opacity="0.6"/>
<text x="683.5" y="629.5" fill="#fff" font-size="10" font-weight="600">ironmark</text>
<text x="741.1" y="629.5" fill="#8f8" font-size="9.5">1.4x faster</text>
<text x="154" y="660" text-anchor="end" fill="#fff" font-size="11" font-weight="600">ironmark</text>
<rect x="170" y="648" width="493" height="20" rx="3" fill="#252525"/>
<rect x="170" y="648" width="493.0" height="20" rx="3" fill="#e8590c"/>
<text x="746" y="660" text-anchor="end" fill="#e0e0e0" font-size="11">973.6 µs</text>
<text x="828" y="660" text-anchor="end" fill="#666" font-size="10">98.0 MB/s</text>
<text x="154" y="688" text-anchor="end" fill="#777" font-size="11" font-weight="400">md4w</text>
<rect x="170" y="676" width="493" height="20" rx="3" fill="#252525"/>
<rect x="170" y="676" width="360.9" height="20" rx="3" fill="#0ea5e9"/>
<text x="746" y="688" text-anchor="end" fill="#e0e0e0" font-size="11">1.33 ms</text>
<text x="828" y="688" text-anchor="end" fill="#666" font-size="10">71.7 MB/s</text>
<text x="154" y="716" text-anchor="end" fill="#777" font-size="11" font-weight="400">markdown-wasm</text>
<rect x="170" y="704" width="493" height="20" rx="3" fill="#252525"/>
<rect x="170" y="704" width="347.5" height="20" rx="3" fill="#7048e8"/>
<text x="746" y="716" text-anchor="end" fill="#e0e0e0" font-size="11">1.38 ms</text>
<text x="828" y="716" text-anchor="end" fill="#666" font-size="10">69.1 MB/s</text>
<text x="32" y="778" fill="#ccc" font-size="14" font-weight="600">Block Types</text>
<rect x="32" y="788" width="816" height="138" rx="6" fill="#1a1a1a" stroke="#2a2a2a"/>
<text x="48" y="816" fill="#aaa" font-size="12" font-weight="500">headings (10.3 KB)</text>
<rect x="675.5" y="804" width="156.5" height="18" rx="3" fill="none" stroke="#e8590c" stroke-opacity="0.6"/>
<text x="683.5" y="815.5" fill="#fff" font-size="10" font-weight="600">ironmark</text>
<text x="741.1" y="815.5" fill="#8f8" font-size="9.5">1.3x faster</text>
<text x="154" y="846" text-anchor="end" fill="#fff" font-size="11" font-weight="600">ironmark</text>
<rect x="170" y="834" width="493" height="20" rx="3" fill="#252525"/>
<rect x="170" y="834" width="493.0" height="20" rx="3" fill="#e8590c"/>
<text x="746" y="846" text-anchor="end" fill="#e0e0e0" font-size="11">71.7 µs</text>
<text x="828" y="846" text-anchor="end" fill="#666" font-size="10">140.7 MB/s</text>
<text x="154" y="874" text-anchor="end" fill="#777" font-size="11" font-weight="400">markdown-wasm</text>
<rect x="170" y="862" width="493" height="20" rx="3" fill="#252525"/>
<rect x="170" y="862" width="386.7" height="20" rx="3" fill="#7048e8"/>
<text x="746" y="874" text-anchor="end" fill="#e0e0e0" font-size="11">91.4 µs</text>
<text x="828" y="874" text-anchor="end" fill="#666" font-size="10">110.4 MB/s</text>
<text x="154" y="902" text-anchor="end" fill="#777" font-size="11" font-weight="400">md4w</text>
<rect x="170" y="890" width="493" height="20" rx="3" fill="#252525"/>
<rect x="170" y="890" width="359.8" height="20" rx="3" fill="#0ea5e9"/>
<text x="746" y="902" text-anchor="end" fill="#e0e0e0" font-size="11">98.3 µs</text>
<text x="828" y="902" text-anchor="end" fill="#666" font-size="10">102.7 MB/s</text>
<rect x="32" y="934" width="816" height="138" rx="6" fill="#1a1a1a" stroke="#2a2a2a"/>
<text x="48" y="962" fill="#aaa" font-size="12" font-weight="500">nested lists (2.9 KB)</text>
<rect x="701.5" y="950" width="130.5" height="18" rx="3" fill="none" stroke="#0ea5e9" stroke-opacity="0.6"/>
<text x="709.5" y="961.5" fill="#fff" font-size="10" font-weight="600">md4w</text>
<text x="742.3" y="961.5" fill="#8f8" font-size="9.5">1.1x faster</text>
<text x="154" y="992" text-anchor="end" fill="#fff" font-size="11" font-weight="600">md4w</text>
<rect x="170" y="980" width="493" height="20" rx="3" fill="#252525"/>
<rect x="170" y="980" width="493.0" height="20" rx="3" fill="#0ea5e9"/>
<text x="746" y="992" text-anchor="end" fill="#e0e0e0" font-size="11">16.7 µs</text>
<text x="828" y="992" text-anchor="end" fill="#666" font-size="10">167.4 MB/s</text>
<text x="154" y="1020" text-anchor="end" fill="#777" font-size="11" font-weight="400">markdown-wasm</text>
<rect x="170" y="1008" width="493" height="20" rx="3" fill="#252525"/>
<rect x="170" y="1008" width="458.8" height="20" rx="3" fill="#7048e8"/>
<text x="746" y="1020" text-anchor="end" fill="#e0e0e0" font-size="11">18.0 µs</text>
<text x="828" y="1020" text-anchor="end" fill="#666" font-size="10">155.8 MB/s</text>
<text x="154" y="1048" text-anchor="end" fill="#777" font-size="11" font-weight="400">ironmark</text>
<rect x="170" y="1036" width="493" height="20" rx="3" fill="#252525"/>
<rect x="170" y="1036" width="437.5" height="20" rx="3" fill="#e8590c"/>
<text x="746" y="1048" text-anchor="end" fill="#e0e0e0" font-size="11">18.9 µs</text>
<text x="828" y="1048" text-anchor="end" fill="#666" font-size="10">148.5 MB/s</text>
<rect x="32" y="1080" width="816" height="138" rx="6" fill="#1a1a1a" stroke="#2a2a2a"/>
<text x="48" y="1108" fill="#aaa" font-size="12" font-weight="500">table (100x10) (8.0 KB)</text>
<rect x="675.5" y="1096" width="156.5" height="18" rx="3" fill="none" stroke="#e8590c" stroke-opacity="0.6"/>
<text x="683.5" y="1107.5" fill="#fff" font-size="10" font-weight="600">ironmark</text>
<text x="741.1" y="1107.5" fill="#8f8" font-size="9.5">1.5x faster</text>
<text x="154" y="1138" text-anchor="end" fill="#fff" font-size="11" font-weight="600">ironmark</text>
<rect x="170" y="1126" width="493" height="20" rx="3" fill="#252525"/>
<rect x="170" y="1126" width="493.0" height="20" rx="3" fill="#e8590c"/>
<text x="746" y="1138" text-anchor="end" fill="#e0e0e0" font-size="11">79.5 µs</text>
<text x="828" y="1138" text-anchor="end" fill="#666" font-size="10">98.8 MB/s</text>
<text x="154" y="1166" text-anchor="end" fill="#777" font-size="11" font-weight="400">md4w</text>
<rect x="170" y="1154" width="493" height="20" rx="3" fill="#252525"/>
<rect x="170" y="1154" width="335.8" height="20" rx="3" fill="#0ea5e9"/>
<text x="746" y="1166" text-anchor="end" fill="#e0e0e0" font-size="11">116.7 µs</text>
<text x="828" y="1166" text-anchor="end" fill="#666" font-size="10">67.3 MB/s</text>
<text x="154" y="1194" text-anchor="end" fill="#777" font-size="11" font-weight="400">markdown-wasm</text>
<rect x="170" y="1182" width="493" height="20" rx="3" fill="#252525"/>
<rect x="170" y="1182" width="262.5" height="20" rx="3" fill="#7048e8"/>
<text x="746" y="1194" text-anchor="end" fill="#e0e0e0" font-size="11">149.3 µs</text>
<text x="828" y="1194" text-anchor="end" fill="#666" font-size="10">52.6 MB/s</text>
<rect x="32" y="1226" width="816" height="138" rx="6" fill="#1a1a1a" stroke="#2a2a2a"/>
<text x="48" y="1254" fill="#aaa" font-size="12" font-weight="500">code blocks (5.2 KB)</text>
<rect x="675.5" y="1242" width="156.5" height="18" rx="3" fill="none" stroke="#e8590c" stroke-opacity="0.6"/>
<text x="683.5" y="1253.5" fill="#fff" font-size="10" font-weight="600">ironmark</text>
<text x="741.1" y="1253.5" fill="#8f8" font-size="9.5">1.1x faster</text>
<text x="154" y="1284" text-anchor="end" fill="#fff" font-size="11" font-weight="600">ironmark</text>
<rect x="170" y="1272" width="493" height="20" rx="3" fill="#252525"/>
<rect x="170" y="1272" width="493.0" height="20" rx="3" fill="#e8590c"/>
<text x="746" y="1284" text-anchor="end" fill="#e0e0e0" font-size="11">35.9 µs</text>
<text x="828" y="1284" text-anchor="end" fill="#666" font-size="10">140.6 MB/s</text>
<text x="154" y="1312" text-anchor="end" fill="#777" font-size="11" font-weight="400">md4w</text>
<rect x="170" y="1300" width="493" height="20" rx="3" fill="#252525"/>
<rect x="170" y="1300" width="461.4" height="20" rx="3" fill="#0ea5e9"/>
<text x="746" y="1312" text-anchor="end" fill="#e0e0e0" font-size="11">38.3 µs</text>
<text x="828" y="1312" text-anchor="end" fill="#666" font-size="10">131.6 MB/s</text>
<text x="154" y="1340" text-anchor="end" fill="#777" font-size="11" font-weight="400">markdown-wasm</text>
<rect x="170" y="1328" width="493" height="20" rx="3" fill="#252525"/>
<rect x="170" y="1328" width="457.9" height="20" rx="3" fill="#7048e8"/>
<text x="746" y="1340" text-anchor="end" fill="#e0e0e0" font-size="11">38.6 µs</text>
<text x="828" y="1340" text-anchor="end" fill="#666" font-size="10">130.6 MB/s</text>
<text x="32" y="1402" fill="#ccc" font-size="14" font-weight="600">Inline-heavy</text>
<rect x="32" y="1412" width="816" height="138" rx="6" fill="#1a1a1a" stroke="#2a2a2a"/>
<text x="48" y="1440" fill="#aaa" font-size="12" font-weight="500">inline heavy (16.7 KB)</text>
<rect x="675.5" y="1428" width="156.5" height="18" rx="3" fill="none" stroke="#e8590c" stroke-opacity="0.6"/>
<text x="683.5" y="1439.5" fill="#fff" font-size="10" font-weight="600">ironmark</text>
<text x="741.1" y="1439.5" fill="#8f8" font-size="9.5">1.4x faster</text>
<text x="154" y="1470" text-anchor="end" fill="#fff" font-size="11" font-weight="600">ironmark</text>
<rect x="170" y="1458" width="493" height="20" rx="3" fill="#252525"/>
<rect x="170" y="1458" width="493.0" height="20" rx="3" fill="#e8590c"/>
<text x="746" y="1470" text-anchor="end" fill="#e0e0e0" font-size="11">153.7 µs</text>
<text x="828" y="1470" text-anchor="end" fill="#666" font-size="10">106.0 MB/s</text>
<text x="154" y="1498" text-anchor="end" fill="#777" font-size="11" font-weight="400">md4w</text>
<rect x="170" y="1486" width="493" height="20" rx="3" fill="#252525"/>
<rect x="170" y="1486" width="340.3" height="20" rx="3" fill="#0ea5e9"/>
<text x="746" y="1498" text-anchor="end" fill="#e0e0e0" font-size="11">222.7 µs</text>
<text x="828" y="1498" text-anchor="end" fill="#666" font-size="10">73.2 MB/s</text>
<text x="154" y="1526" text-anchor="end" fill="#777" font-size="11" font-weight="400">markdown-wasm</text>
<rect x="170" y="1514" width="493" height="20" rx="3" fill="#252525"/>
<rect x="170" y="1514" width="337.0" height="20" rx="3" fill="#7048e8"/>
<text x="746" y="1526" text-anchor="end" fill="#e0e0e0" font-size="11">224.9 µs</text>
<text x="828" y="1526" text-anchor="end" fill="#666" font-size="10">72.5 MB/s</text></g>
<text x="440" y="3848" text-anchor="middle" fill="#666" font-size="10">Bars show throughput (longer is faster). Generated on 2026-03-31.</text>
</svg>