<svg xmlns="http://www.w3.org/2000/svg" width="880" height="3868" viewBox="0 0 880 3868">
<style>text { font-family: -apple-system, BlinkMacSystemFont, "Segoe UI", Roboto, Helvetica, Arial, sans-serif; }</style>
<rect width="880" height="3868" fill="#0f0f0f"/>
<text x="440" y="28" text-anchor="middle" fill="#fff" font-size="26" font-weight="700" letter-spacing="-0.5">ironmark</text>
<text x="440" y="50" text-anchor="middle" fill="#888" font-size="13">benchmark results</text>
<g transform="translate(0,72)"><text x="440" y="24" text-anchor="middle" fill="#fff" font-size="20" font-weight="700">Native Rust</text>
<text x="440" y="46" text-anchor="middle" fill="#888" font-size="12">ironmark vs pulldown-cmark vs comrak vs markdown-rs — cargo bench (criterion)</text>
<rect x="160" y="60" width="10" height="10" rx="2" fill="#e8590c"/>
<text x="176" y="69" fill="#aaa" font-size="11">ironmark</text>
<rect x="300" y="60" width="10" height="10" rx="2" fill="#1971c2"/>
<text x="316" y="69" fill="#aaa" font-size="11">pulldown-cmark</text>
<rect x="440" y="60" width="10" height="10" rx="2" fill="#2f9e44"/>
<text x="456" y="69" fill="#aaa" font-size="11">comrak</text>
<rect x="580" y="60" width="10" height="10" rx="2" fill="#c2185b"/>
<text x="596" y="69" fill="#aaa" font-size="11">markdown-rs</text>
<text x="32" y="114" fill="#ccc" font-size="14" font-weight="600">CommonMark Spec</text>
<rect x="32" y="124" width="816" height="166" rx="6" fill="#1a1a1a" stroke="#2a2a2a"/>
<text x="48" y="152" fill="#aaa" font-size="12" font-weight="500">commonmark_spec (15.2 KB)</text>
<rect x="675.5" y="140" width="156.5" height="18" rx="3" fill="none" stroke="#e8590c" stroke-opacity="0.6"/>
<text x="683.5" y="151.5" fill="#fff" font-size="10" font-weight="600">ironmark</text>
<text x="741.1" y="151.5" fill="#8f8" font-size="9.5">1.1x faster</text>
<text x="154" y="182" text-anchor="end" fill="#fff" font-size="11" font-weight="600">ironmark</text>
<rect x="170" y="170" width="493" height="20" rx="3" fill="#252525"/>
<rect x="170" y="170" width="493.0" height="20" rx="3" fill="#e8590c"/>
<text x="746" y="182" text-anchor="end" fill="#e0e0e0" font-size="11">191.4 µs</text>
<text x="828" y="182" text-anchor="end" fill="#666" font-size="10">77.6 MB/s</text>
<text x="154" y="210" text-anchor="end" fill="#777" font-size="11" font-weight="400">pulldown-cmark</text>
<rect x="170" y="198" width="493" height="20" rx="3" fill="#252525"/>
<rect x="170" y="198" width="440.9" height="20" rx="3" fill="#1971c2"/>
<text x="746" y="210" text-anchor="end" fill="#e0e0e0" font-size="11">214.1 µs</text>
<text x="828" y="210" text-anchor="end" fill="#666" font-size="10">69.4 MB/s</text>
<text x="154" y="238" text-anchor="end" fill="#777" font-size="11" font-weight="400">comrak</text>
<rect x="170" y="226" width="493" height="20" rx="3" fill="#252525"/>
<rect x="170" y="226" width="125.2" height="20" rx="3" fill="#2f9e44"/>
<text x="746" y="238" text-anchor="end" fill="#e0e0e0" font-size="11">753.5 µs</text>
<text x="828" y="238" text-anchor="end" fill="#666" font-size="10">19.7 MB/s</text>
<text x="154" y="266" text-anchor="end" fill="#777" font-size="11" font-weight="400">markdown-rs</text>
<rect x="170" y="254" width="493" height="20" rx="3" fill="#252525"/>
<rect x="170" y="254" width="18.5" height="20" rx="3" fill="#c2185b"/>
<text x="746" y="266" text-anchor="end" fill="#e0e0e0" font-size="11">5.09 ms</text>
<text x="828" y="266" text-anchor="end" fill="#666" font-size="10">2.9 MB/s</text>
<text x="32" y="328" fill="#ccc" font-size="14" font-weight="600">Document Sizes</text>
<rect x="32" y="338" width="816" height="166" rx="6" fill="#1a1a1a" stroke="#2a2a2a"/>
<text x="48" y="366" fill="#aaa" font-size="12" font-weight="500">1000 bytes (1000 B)</text>
<rect x="675.5" y="354" width="156.5" height="18" rx="3" fill="none" stroke="#e8590c" stroke-opacity="0.6"/>
<text x="683.5" y="365.5" fill="#fff" font-size="10" font-weight="600">ironmark</text>
<text x="741.1" y="365.5" fill="#8f8" font-size="9.5">1.8x faster</text>
<text x="154" y="396" text-anchor="end" fill="#fff" font-size="11" font-weight="600">ironmark</text>
<rect x="170" y="384" width="493" height="20" rx="3" fill="#252525"/>
<rect x="170" y="384" width="493.0" height="20" rx="3" fill="#e8590c"/>
<text x="746" y="396" text-anchor="end" fill="#e0e0e0" font-size="11">5.1 µs</text>
<text x="828" y="396" text-anchor="end" fill="#666" font-size="10">186.3 MB/s</text>
<text x="154" y="424" text-anchor="end" fill="#777" font-size="11" font-weight="400">pulldown-cmark</text>
<rect x="170" y="412" width="493" height="20" rx="3" fill="#252525"/>
<rect x="170" y="412" width="278.0" height="20" rx="3" fill="#1971c2"/>
<text x="746" y="424" text-anchor="end" fill="#e0e0e0" font-size="11">9.1 µs</text>
<text x="828" y="424" text-anchor="end" fill="#666" font-size="10">105.1 MB/s</text>
<text x="154" y="452" text-anchor="end" fill="#777" font-size="11" font-weight="400">comrak</text>
<rect x="170" y="440" width="493" height="20" rx="3" fill="#252525"/>
<rect x="170" y="440" width="88.8" height="20" rx="3" fill="#2f9e44"/>
<text x="746" y="452" text-anchor="end" fill="#e0e0e0" font-size="11">28.4 µs</text>
<text x="828" y="452" text-anchor="end" fill="#666" font-size="10">33.6 MB/s</text>
<text x="154" y="480" text-anchor="end" fill="#777" font-size="11" font-weight="400">markdown-rs</text>
<rect x="170" y="468" width="493" height="20" rx="3" fill="#252525"/>
<rect x="170" y="468" width="16.6" height="20" rx="3" fill="#c2185b"/>
<text x="746" y="480" text-anchor="end" fill="#e0e0e0" font-size="11">152.4 µs</text>
<text x="828" y="480" text-anchor="end" fill="#666" font-size="10">6.3 MB/s</text>
<rect x="32" y="512" width="816" height="166" rx="6" fill="#1a1a1a" stroke="#2a2a2a"/>
<text x="48" y="540" fill="#aaa" font-size="12" font-weight="500">10000 bytes (9.8 KB)</text>
<rect x="675.5" y="528" width="156.5" height="18" rx="3" fill="none" stroke="#e8590c" stroke-opacity="0.6"/>
<text x="683.5" y="539.5" fill="#fff" font-size="10" font-weight="600">ironmark</text>
<text x="741.1" y="539.5" fill="#8f8" font-size="9.5">1.8x faster</text>
<text x="154" y="570" text-anchor="end" fill="#fff" font-size="11" font-weight="600">ironmark</text>
<rect x="170" y="558" width="493" height="20" rx="3" fill="#252525"/>
<rect x="170" y="558" width="493.0" height="20" rx="3" fill="#e8590c"/>
<text x="746" y="570" text-anchor="end" fill="#e0e0e0" font-size="11">47.2 µs</text>
<text x="828" y="570" text-anchor="end" fill="#666" font-size="10">202.2 MB/s</text>
<text x="154" y="598" text-anchor="end" fill="#777" font-size="11" font-weight="400">pulldown-cmark</text>
<rect x="170" y="586" width="493" height="20" rx="3" fill="#252525"/>
<rect x="170" y="586" width="277.1" height="20" rx="3" fill="#1971c2"/>
<text x="746" y="598" text-anchor="end" fill="#e0e0e0" font-size="11">83.9 µs</text>
<text x="828" y="598" text-anchor="end" fill="#666" font-size="10">113.7 MB/s</text>
<text x="154" y="626" text-anchor="end" fill="#777" font-size="11" font-weight="400">comrak</text>
<rect x="170" y="614" width="493" height="20" rx="3" fill="#252525"/>
<rect x="170" y="614" width="83.6" height="20" rx="3" fill="#2f9e44"/>
<text x="746" y="626" text-anchor="end" fill="#e0e0e0" font-size="11">278.0 µs</text>
<text x="828" y="626" text-anchor="end" fill="#666" font-size="10">34.3 MB/s</text>
<text x="154" y="654" text-anchor="end" fill="#777" font-size="11" font-weight="400">markdown-rs</text>
<rect x="170" y="642" width="493" height="20" rx="3" fill="#252525"/>
<rect x="170" y="642" width="16.0" height="20" rx="3" fill="#c2185b"/>
<text x="746" y="654" text-anchor="end" fill="#e0e0e0" font-size="11">1.46 ms</text>
<text x="828" y="654" text-anchor="end" fill="#666" font-size="10">6.6 MB/s</text>
<rect x="32" y="686" width="816" height="166" rx="6" fill="#1a1a1a" stroke="#2a2a2a"/>
<text x="48" y="714" fill="#aaa" font-size="12" font-weight="500">100000 bytes (97.7 KB)</text>
<rect x="675.5" y="702" width="156.5" height="18" rx="3" fill="none" stroke="#e8590c" stroke-opacity="0.6"/>
<text x="683.5" y="713.5" fill="#fff" font-size="10" font-weight="600">ironmark</text>
<text x="741.1" y="713.5" fill="#8f8" font-size="9.5">1.8x faster</text>
<text x="154" y="744" text-anchor="end" fill="#fff" font-size="11" font-weight="600">ironmark</text>
<rect x="170" y="732" width="493" height="20" rx="3" fill="#252525"/>
<rect x="170" y="732" width="493.0" height="20" rx="3" fill="#e8590c"/>
<text x="746" y="744" text-anchor="end" fill="#e0e0e0" font-size="11">466.7 µs</text>
<text x="828" y="744" text-anchor="end" fill="#666" font-size="10">204.3 MB/s</text>
<text x="154" y="772" text-anchor="end" fill="#777" font-size="11" font-weight="400">pulldown-cmark</text>
<rect x="170" y="760" width="493" height="20" rx="3" fill="#252525"/>
<rect x="170" y="760" width="281.1" height="20" rx="3" fill="#1971c2"/>
<text x="746" y="772" text-anchor="end" fill="#e0e0e0" font-size="11">818.4 µs</text>
<text x="828" y="772" text-anchor="end" fill="#666" font-size="10">116.5 MB/s</text>
<text x="154" y="800" text-anchor="end" fill="#777" font-size="11" font-weight="400">comrak</text>
<rect x="170" y="788" width="493" height="20" rx="3" fill="#252525"/>
<rect x="170" y="788" width="82.4" height="20" rx="3" fill="#2f9e44"/>
<text x="746" y="800" text-anchor="end" fill="#e0e0e0" font-size="11">2.79 ms</text>
<text x="828" y="800" text-anchor="end" fill="#666" font-size="10">34.1 MB/s</text>
<text x="154" y="828" text-anchor="end" fill="#777" font-size="11" font-weight="400">markdown-rs</text>
<rect x="170" y="816" width="493" height="20" rx="3" fill="#252525"/>
<rect x="170" y="816" width="13.8" height="20" rx="3" fill="#c2185b"/>
<text x="746" y="828" text-anchor="end" fill="#e0e0e0" font-size="11">16.64 ms</text>
<text x="828" y="828" text-anchor="end" fill="#666" font-size="10">5.7 MB/s</text>
<rect x="32" y="860" width="816" height="166" rx="6" fill="#1a1a1a" stroke="#2a2a2a"/>
<text x="48" y="888" fill="#aaa" font-size="12" font-weight="500">1000000 bytes (976.6 KB)</text>
<rect x="675.5" y="876" width="156.5" height="18" rx="3" fill="none" stroke="#e8590c" stroke-opacity="0.6"/>
<text x="683.5" y="887.5" fill="#fff" font-size="10" font-weight="600">ironmark</text>
<text x="741.1" y="887.5" fill="#8f8" font-size="9.5">2.2x faster</text>
<text x="154" y="918" text-anchor="end" fill="#fff" font-size="11" font-weight="600">ironmark</text>
<rect x="170" y="906" width="493" height="20" rx="3" fill="#252525"/>
<rect x="170" y="906" width="493.0" height="20" rx="3" fill="#e8590c"/>
<text x="746" y="918" text-anchor="end" fill="#e0e0e0" font-size="11">4.73 ms</text>
<text x="828" y="918" text-anchor="end" fill="#666" font-size="10">201.8 MB/s</text>
<text x="154" y="946" text-anchor="end" fill="#777" font-size="11" font-weight="400">pulldown-cmark</text>
<rect x="170" y="934" width="493" height="20" rx="3" fill="#252525"/>
<rect x="170" y="934" width="228.7" height="20" rx="3" fill="#1971c2"/>
<text x="746" y="946" text-anchor="end" fill="#e0e0e0" font-size="11">10.19 ms</text>
<text x="828" y="946" text-anchor="end" fill="#666" font-size="10">93.6 MB/s</text>
<text x="154" y="974" text-anchor="end" fill="#777" font-size="11" font-weight="400">comrak</text>
<rect x="170" y="962" width="493" height="20" rx="3" fill="#252525"/>
<rect x="170" y="962" width="78.3" height="20" rx="3" fill="#2f9e44"/>
<text x="746" y="974" text-anchor="end" fill="#e0e0e0" font-size="11">29.76 ms</text>
<text x="828" y="974" text-anchor="end" fill="#666" font-size="10">32.0 MB/s</text>
<text x="154" y="1002" text-anchor="end" fill="#777" font-size="11" font-weight="400">markdown-rs</text>
<rect x="170" y="990" width="493" height="20" rx="3" fill="#252525"/>
<rect x="170" y="990" width="6.2" height="20" rx="3" fill="#c2185b"/>
<text x="746" y="1002" text-anchor="end" fill="#e0e0e0" font-size="11">374.77 ms</text>
<text x="828" y="1002" text-anchor="end" fill="#666" font-size="10">2.5 MB/s</text>
<rect x="32" y="1034" width="816" height="166" rx="6" fill="#1a1a1a" stroke="#2a2a2a"/>
<text x="48" y="1062" fill="#aaa" font-size="12" font-weight="500">5000000 bytes (4.8 MB)</text>
<rect x="675.5" y="1050" width="156.5" height="18" rx="3" fill="none" stroke="#e8590c" stroke-opacity="0.6"/>
<text x="683.5" y="1061.5" fill="#fff" font-size="10" font-weight="600">ironmark</text>
<text x="741.1" y="1061.5" fill="#8f8" font-size="9.5">2.2x faster</text>
<text x="154" y="1092" text-anchor="end" fill="#fff" font-size="11" font-weight="600">ironmark</text>
<rect x="170" y="1080" width="493" height="20" rx="3" fill="#252525"/>
<rect x="170" y="1080" width="493.0" height="20" rx="3" fill="#e8590c"/>
<text x="746" y="1092" text-anchor="end" fill="#e0e0e0" font-size="11">30.17 ms</text>
<text x="828" y="1092" text-anchor="end" fill="#666" font-size="10">158.0 MB/s</text>
<text x="154" y="1120" text-anchor="end" fill="#777" font-size="11" font-weight="400">pulldown-cmark</text>
<rect x="170" y="1108" width="493" height="20" rx="3" fill="#252525"/>
<rect x="170" y="1108" width="223.1" height="20" rx="3" fill="#1971c2"/>
<text x="746" y="1120" text-anchor="end" fill="#e0e0e0" font-size="11">66.66 ms</text>
<text x="828" y="1120" text-anchor="end" fill="#666" font-size="10">71.5 MB/s</text>
<text x="154" y="1148" text-anchor="end" fill="#777" font-size="11" font-weight="400">comrak</text>
<rect x="170" y="1136" width="493" height="20" rx="3" fill="#252525"/>
<rect x="170" y="1136" width="78.8" height="20" rx="3" fill="#2f9e44"/>
<text x="746" y="1148" text-anchor="end" fill="#e0e0e0" font-size="11">188.86 ms</text>
<text x="828" y="1148" text-anchor="end" fill="#666" font-size="10">25.2 MB/s</text>
<text x="154" y="1176" text-anchor="end" fill="#777" font-size="11" font-weight="400">markdown-rs</text>
<rect x="170" y="1164" width="493" height="20" rx="3" fill="#252525"/>
<rect x="170" y="1164" width="2.0" height="20" rx="3" fill="#c2185b"/>
<text x="746" y="1176" text-anchor="end" fill="#e0e0e0" font-size="11">7390.97 ms</text>
<text x="828" y="1176" text-anchor="end" fill="#666" font-size="10">0.6 MB/s</text>
<text x="32" y="1238" fill="#ccc" font-size="14" font-weight="600">Block Types</text>
<rect x="32" y="1248" width="816" height="166" rx="6" fill="#1a1a1a" stroke="#2a2a2a"/>
<text x="48" y="1276" fill="#aaa" font-size="12" font-weight="500">code_blocks (5.2 KB)</text>
<rect x="636.5" y="1264" width="195.5" height="18" rx="3" fill="none" stroke="#1971c2" stroke-opacity="0.6"/>
<text x="644.5" y="1275.5" fill="#fff" font-size="10" font-weight="600">pulldown-cmark</text>
<text x="739.3" y="1275.5" fill="#8f8" font-size="9.5">1.1x faster</text>
<text x="154" y="1306" text-anchor="end" fill="#fff" font-size="11" font-weight="600">pulldown-cmark</text>
<rect x="170" y="1294" width="493" height="20" rx="3" fill="#252525"/>
<rect x="170" y="1294" width="493.0" height="20" rx="3" fill="#1971c2"/>
<text x="746" y="1306" text-anchor="end" fill="#e0e0e0" font-size="11">16.3 µs</text>
<text x="828" y="1306" text-anchor="end" fill="#666" font-size="10">309.3 MB/s</text>
<text x="154" y="1334" text-anchor="end" fill="#777" font-size="11" font-weight="400">ironmark</text>
<rect x="170" y="1322" width="493" height="20" rx="3" fill="#252525"/>
<rect x="170" y="1322" width="456.7" height="20" rx="3" fill="#e8590c"/>
<text x="746" y="1334" text-anchor="end" fill="#e0e0e0" font-size="11">17.6 µs</text>
<text x="828" y="1334" text-anchor="end" fill="#666" font-size="10">286.6 MB/s</text>
<text x="154" y="1362" text-anchor="end" fill="#777" font-size="11" font-weight="400">comrak</text>
<rect x="170" y="1350" width="493" height="20" rx="3" fill="#252525"/>
<rect x="170" y="1350" width="84.7" height="20" rx="3" fill="#2f9e44"/>
<text x="746" y="1362" text-anchor="end" fill="#e0e0e0" font-size="11">94.9 µs</text>
<text x="828" y="1362" text-anchor="end" fill="#666" font-size="10">53.1 MB/s</text>
<text x="154" y="1390" text-anchor="end" fill="#777" font-size="11" font-weight="400">markdown-rs</text>
<rect x="170" y="1378" width="493" height="20" rx="3" fill="#252525"/>
<rect x="170" y="1378" width="17.9" height="20" rx="3" fill="#c2185b"/>
<text x="746" y="1390" text-anchor="end" fill="#e0e0e0" font-size="11">448.2 µs</text>
<text x="828" y="1390" text-anchor="end" fill="#666" font-size="10">11.3 MB/s</text>
<rect x="32" y="1422" width="816" height="166" rx="6" fill="#1a1a1a" stroke="#2a2a2a"/>
<text x="48" y="1450" fill="#aaa" font-size="12" font-weight="500">headings (10.3 KB)</text>
<rect x="675.5" y="1438" width="156.5" height="18" rx="3" fill="none" stroke="#e8590c" stroke-opacity="0.6"/>
<text x="683.5" y="1449.5" fill="#fff" font-size="10" font-weight="600">ironmark</text>
<text x="741.1" y="1449.5" fill="#8f8" font-size="9.5">1.1x faster</text>
<text x="154" y="1480" text-anchor="end" fill="#fff" font-size="11" font-weight="600">ironmark</text>
<rect x="170" y="1468" width="493" height="20" rx="3" fill="#252525"/>
<rect x="170" y="1468" width="493.0" height="20" rx="3" fill="#e8590c"/>
<text x="746" y="1480" text-anchor="end" fill="#e0e0e0" font-size="11">36.0 µs</text>
<text x="828" y="1480" text-anchor="end" fill="#666" font-size="10">280.0 MB/s</text>
<text x="154" y="1508" text-anchor="end" fill="#777" font-size="11" font-weight="400">pulldown-cmark</text>
<rect x="170" y="1496" width="493" height="20" rx="3" fill="#252525"/>
<rect x="170" y="1496" width="441.9" height="20" rx="3" fill="#1971c2"/>
<text x="746" y="1508" text-anchor="end" fill="#e0e0e0" font-size="11">40.2 µs</text>
<text x="828" y="1508" text-anchor="end" fill="#666" font-size="10">251.0 MB/s</text>
<text x="154" y="1536" text-anchor="end" fill="#777" font-size="11" font-weight="400">comrak</text>
<rect x="170" y="1524" width="493" height="20" rx="3" fill="#252525"/>
<rect x="170" y="1524" width="98.1" height="20" rx="3" fill="#2f9e44"/>
<text x="746" y="1536" text-anchor="end" fill="#e0e0e0" font-size="11">181.2 µs</text>
<text x="828" y="1536" text-anchor="end" fill="#666" font-size="10">55.7 MB/s</text>
<text x="154" y="1564" text-anchor="end" fill="#777" font-size="11" font-weight="400">markdown-rs</text>
<rect x="170" y="1552" width="493" height="20" rx="3" fill="#252525"/>
<rect x="170" y="1552" width="15.8" height="20" rx="3" fill="#c2185b"/>
<text x="746" y="1564" text-anchor="end" fill="#e0e0e0" font-size="11">1.12 ms</text>
<text x="828" y="1564" text-anchor="end" fill="#666" font-size="10">9.0 MB/s</text>
<rect x="32" y="1596" width="816" height="166" rx="6" fill="#1a1a1a" stroke="#2a2a2a"/>
<text x="48" y="1624" fill="#aaa" font-size="12" font-weight="500">nested_lists (2.9 KB)</text>
<rect x="675.5" y="1612" width="156.5" height="18" rx="3" fill="none" stroke="#e8590c" stroke-opacity="0.6"/>
<text x="683.5" y="1623.5" fill="#fff" font-size="10" font-weight="600">ironmark</text>
<text x="741.1" y="1623.5" fill="#8f8" font-size="9.5">1.5x faster</text>
<text x="154" y="1654" text-anchor="end" fill="#fff" font-size="11" font-weight="600">ironmark</text>
<rect x="170" y="1642" width="493" height="20" rx="3" fill="#252525"/>
<rect x="170" y="1642" width="493.0" height="20" rx="3" fill="#e8590c"/>
<text x="746" y="1654" text-anchor="end" fill="#e0e0e0" font-size="11">11.2 µs</text>
<text x="828" y="1654" text-anchor="end" fill="#666" font-size="10">249.2 MB/s</text>
<text x="154" y="1682" text-anchor="end" fill="#777" font-size="11" font-weight="400">pulldown-cmark</text>
<rect x="170" y="1670" width="493" height="20" rx="3" fill="#252525"/>
<rect x="170" y="1670" width="336.0" height="20" rx="3" fill="#1971c2"/>
<text x="746" y="1682" text-anchor="end" fill="#e0e0e0" font-size="11">16.5 µs</text>
<text x="828" y="1682" text-anchor="end" fill="#666" font-size="10">169.9 MB/s</text>
<text x="154" y="1710" text-anchor="end" fill="#777" font-size="11" font-weight="400">comrak</text>
<rect x="170" y="1698" width="493" height="20" rx="3" fill="#252525"/>
<rect x="170" y="1698" width="136.1" height="20" rx="3" fill="#2f9e44"/>
<text x="746" y="1710" text-anchor="end" fill="#e0e0e0" font-size="11">40.7 µs</text>
<text x="828" y="1710" text-anchor="end" fill="#666" font-size="10">68.8 MB/s</text>
<text x="154" y="1738" text-anchor="end" fill="#777" font-size="11" font-weight="400">markdown-rs</text>
<rect x="170" y="1726" width="493" height="20" rx="3" fill="#252525"/>
<rect x="170" y="1726" width="6.9" height="20" rx="3" fill="#c2185b"/>
<text x="746" y="1738" text-anchor="end" fill="#e0e0e0" font-size="11">803.3 µs</text>
<text x="828" y="1738" text-anchor="end" fill="#666" font-size="10">3.5 MB/s</text>
<rect x="32" y="1770" width="816" height="166" rx="6" fill="#1a1a1a" stroke="#2a2a2a"/>
<text x="48" y="1798" fill="#aaa" font-size="12" font-weight="500">table (8.0 KB)</text>
<rect x="675.5" y="1786" width="156.5" height="18" rx="3" fill="none" stroke="#e8590c" stroke-opacity="0.6"/>
<text x="683.5" y="1797.5" fill="#fff" font-size="10" font-weight="600">ironmark</text>
<text x="741.1" y="1797.5" fill="#8f8" font-size="9.5">1.4x faster</text>
<text x="154" y="1828" text-anchor="end" fill="#fff" font-size="11" font-weight="600">ironmark</text>
<rect x="170" y="1816" width="493" height="20" rx="3" fill="#252525"/>
<rect x="170" y="1816" width="493.0" height="20" rx="3" fill="#e8590c"/>
<text x="746" y="1828" text-anchor="end" fill="#e0e0e0" font-size="11">38.3 µs</text>
<text x="828" y="1828" text-anchor="end" fill="#666" font-size="10">204.8 MB/s</text>
<text x="154" y="1856" text-anchor="end" fill="#777" font-size="11" font-weight="400">pulldown-cmark</text>
<rect x="170" y="1844" width="493" height="20" rx="3" fill="#252525"/>
<rect x="170" y="1844" width="364.5" height="20" rx="3" fill="#1971c2"/>
<text x="746" y="1856" text-anchor="end" fill="#e0e0e0" font-size="11">51.9 µs</text>
<text x="828" y="1856" text-anchor="end" fill="#666" font-size="10">151.4 MB/s</text>
<text x="154" y="1884" text-anchor="end" fill="#777" font-size="11" font-weight="400">markdown-rs</text>
<rect x="170" y="1872" width="493" height="20" rx="3" fill="#252525"/>
<rect x="170" y="1872" width="65.9" height="20" rx="3" fill="#c2185b"/>
<text x="746" y="1884" text-anchor="end" fill="#e0e0e0" font-size="11">286.8 µs</text>
<text x="828" y="1884" text-anchor="end" fill="#666" font-size="10">27.4 MB/s</text>
<text x="154" y="1912" text-anchor="end" fill="#777" font-size="11" font-weight="400">comrak</text>
<rect x="170" y="1900" width="493" height="20" rx="3" fill="#252525"/>
<rect x="170" y="1900" width="46.3" height="20" rx="3" fill="#2f9e44"/>
<text x="746" y="1912" text-anchor="end" fill="#e0e0e0" font-size="11">408.5 µs</text>
<text x="828" y="1912" text-anchor="end" fill="#666" font-size="10">19.2 MB/s</text>
<text x="32" y="1974" fill="#ccc" font-size="14" font-weight="600">Inline-heavy</text>
<rect x="32" y="1984" width="816" height="166" rx="6" fill="#1a1a1a" stroke="#2a2a2a"/>
<text x="48" y="2012" fill="#aaa" font-size="12" font-weight="500">inline_heavy (16.7 KB)</text>
<rect x="675.5" y="2000" width="156.5" height="18" rx="3" fill="none" stroke="#e8590c" stroke-opacity="0.6"/>
<text x="683.5" y="2011.5" fill="#fff" font-size="10" font-weight="600">ironmark</text>
<text x="741.1" y="2011.5" fill="#8f8" font-size="9.5">1.8x faster</text>
<text x="154" y="2042" text-anchor="end" fill="#fff" font-size="11" font-weight="600">ironmark</text>
<rect x="170" y="2030" width="493" height="20" rx="3" fill="#252525"/>
<rect x="170" y="2030" width="493.0" height="20" rx="3" fill="#e8590c"/>
<text x="746" y="2042" text-anchor="end" fill="#e0e0e0" font-size="11">80.2 µs</text>
<text x="828" y="2042" text-anchor="end" fill="#666" font-size="10">203.3 MB/s</text>
<text x="154" y="2070" text-anchor="end" fill="#777" font-size="11" font-weight="400">pulldown-cmark</text>
<rect x="170" y="2058" width="493" height="20" rx="3" fill="#252525"/>
<rect x="170" y="2058" width="280.2" height="20" rx="3" fill="#1971c2"/>
<text x="746" y="2070" text-anchor="end" fill="#e0e0e0" font-size="11">141.1 µs</text>
<text x="828" y="2070" text-anchor="end" fill="#666" font-size="10">115.5 MB/s</text>
<text x="154" y="2098" text-anchor="end" fill="#777" font-size="11" font-weight="400">comrak</text>
<rect x="170" y="2086" width="493" height="20" rx="3" fill="#252525"/>
<rect x="170" y="2086" width="84.6" height="20" rx="3" fill="#2f9e44"/>
<text x="746" y="2098" text-anchor="end" fill="#e0e0e0" font-size="11">467.2 µs</text>
<text x="828" y="2098" text-anchor="end" fill="#666" font-size="10">34.9 MB/s</text>
<text x="154" y="2126" text-anchor="end" fill="#777" font-size="11" font-weight="400">markdown-rs</text>
<rect x="170" y="2114" width="493" height="20" rx="3" fill="#252525"/>
<rect x="170" y="2114" width="15.8" height="20" rx="3" fill="#c2185b"/>
<text x="746" y="2126" text-anchor="end" fill="#e0e0e0" font-size="11">2.49 ms</text>
<text x="828" y="2126" text-anchor="end" fill="#666" font-size="10">6.5 MB/s</text></g>
<g transform="translate(0,2254)"><text x="440" y="24" text-anchor="middle" fill="#fff" font-size="20" font-weight="700">WASM (Node.js)</text>
<text x="440" y="46" text-anchor="middle" fill="#888" font-size="12">ironmark vs markdown-wasm vs md4w — median of 500 iterations</text>
<rect x="230" y="60" width="10" height="10" rx="2" fill="#e8590c"/>
<text x="246" y="69" fill="#aaa" font-size="11">ironmark</text>
<rect x="370" y="60" width="10" height="10" rx="2" fill="#7048e8"/>
<text x="386" y="69" fill="#aaa" font-size="11">markdown-wasm</text>
<rect x="510" y="60" width="10" height="10" rx="2" fill="#0ea5e9"/>
<text x="526" y="69" fill="#aaa" font-size="11">md4w</text>
<text x="32" y="114" fill="#ccc" font-size="14" font-weight="600">CommonMark Spec</text>
<rect x="32" y="124" width="816" height="138" rx="6" fill="#1a1a1a" stroke="#2a2a2a"/>
<text x="48" y="152" fill="#aaa" font-size="12" font-weight="500">spec (all examples) (15.1 KB)</text>
<rect x="675.5" y="140" width="156.5" height="18" rx="3" fill="none" stroke="#e8590c" stroke-opacity="0.6"/>
<text x="683.5" y="151.5" fill="#fff" font-size="10" font-weight="600">ironmark</text>
<text x="741.1" y="151.5" fill="#8f8" font-size="9.5">1.2x faster</text>
<text x="154" y="182" text-anchor="end" fill="#fff" font-size="11" font-weight="600">ironmark</text>
<rect x="170" y="170" width="493" height="20" rx="3" fill="#252525"/>
<rect x="170" y="170" width="493.0" height="20" rx="3" fill="#e8590c"/>
<text x="746" y="182" text-anchor="end" fill="#e0e0e0" font-size="11">309.3 µs</text>
<text x="828" y="182" text-anchor="end" fill="#666" font-size="10">47.7 MB/s</text>
<text x="154" y="210" text-anchor="end" fill="#777" font-size="11" font-weight="400">md4w</text>
<rect x="170" y="198" width="493" height="20" rx="3" fill="#252525"/>
<rect x="170" y="198" width="406.1" height="20" rx="3" fill="#0ea5e9"/>
<text x="746" y="210" text-anchor="end" fill="#e0e0e0" font-size="11">375.5 µs</text>
<text x="828" y="210" text-anchor="end" fill="#666" font-size="10">39.3 MB/s</text>
<text x="154" y="238" text-anchor="end" fill="#777" font-size="11" font-weight="400">markdown-wasm</text>
<rect x="170" y="226" width="493" height="20" rx="3" fill="#252525"/>
<rect x="170" y="226" width="386.4" height="20" rx="3" fill="#7048e8"/>
<text x="746" y="238" text-anchor="end" fill="#e0e0e0" font-size="11">394.7 µs</text>
<text x="828" y="238" text-anchor="end" fill="#666" font-size="10">37.4 MB/s</text>
<text x="32" y="300" fill="#ccc" font-size="14" font-weight="600">Document Sizes</text>
<rect x="32" y="310" width="816" height="138" rx="6" fill="#1a1a1a" stroke="#2a2a2a"/>
<text x="48" y="338" fill="#aaa" font-size="12" font-weight="500">mixed 1000 B (1000 B)</text>
<rect x="675.5" y="326" width="156.5" height="18" rx="3" fill="none" stroke="#e8590c" stroke-opacity="0.6"/>
<text x="683.5" y="337.5" fill="#fff" font-size="10" font-weight="600">ironmark</text>
<text x="741.1" y="337.5" fill="#8f8" font-size="9.5">1.4x faster</text>
<text x="154" y="368" text-anchor="end" fill="#fff" font-size="11" font-weight="600">ironmark</text>
<rect x="170" y="356" width="493" height="20" rx="3" fill="#252525"/>
<rect x="170" y="356" width="493.0" height="20" rx="3" fill="#e8590c"/>
<text x="746" y="368" text-anchor="end" fill="#e0e0e0" font-size="11">10.3 µs</text>
<text x="828" y="368" text-anchor="end" fill="#666" font-size="10">92.3 MB/s</text>
<text x="154" y="396" text-anchor="end" fill="#777" font-size="11" font-weight="400">markdown-wasm</text>
<rect x="170" y="384" width="493" height="20" rx="3" fill="#252525"/>
<rect x="170" y="384" width="348.3" height="20" rx="3" fill="#7048e8"/>
<text x="746" y="396" text-anchor="end" fill="#e0e0e0" font-size="11">14.6 µs</text>
<text x="828" y="396" text-anchor="end" fill="#666" font-size="10">65.2 MB/s</text>
<text x="154" y="424" text-anchor="end" fill="#777" font-size="11" font-weight="400">md4w</text>
<rect x="170" y="412" width="493" height="20" rx="3" fill="#252525"/>
<rect x="170" y="412" width="338.7" height="20" rx="3" fill="#0ea5e9"/>
<text x="746" y="424" text-anchor="end" fill="#e0e0e0" font-size="11">15.0 µs</text>
<text x="828" y="424" text-anchor="end" fill="#666" font-size="10">63.4 MB/s</text>
<rect x="32" y="456" width="816" height="138" rx="6" fill="#1a1a1a" stroke="#2a2a2a"/>
<text x="48" y="484" fill="#aaa" font-size="12" font-weight="500">mixed 9.8 KB (9.8 KB)</text>
<rect x="675.5" y="472" width="156.5" height="18" rx="3" fill="none" stroke="#e8590c" stroke-opacity="0.6"/>
<text x="683.5" y="483.5" fill="#fff" font-size="10" font-weight="600">ironmark</text>
<text x="741.1" y="483.5" fill="#8f8" font-size="9.5">1.4x faster</text>
<text x="154" y="514" text-anchor="end" fill="#fff" font-size="11" font-weight="600">ironmark</text>
<rect x="170" y="502" width="493" height="20" rx="3" fill="#252525"/>
<rect x="170" y="502" width="493.0" height="20" rx="3" fill="#e8590c"/>
<text x="746" y="514" text-anchor="end" fill="#e0e0e0" font-size="11">93.0 µs</text>
<text x="828" y="514" text-anchor="end" fill="#666" font-size="10">102.5 MB/s</text>
<text x="154" y="542" text-anchor="end" fill="#777" font-size="11" font-weight="400">markdown-wasm</text>
<rect x="170" y="530" width="493" height="20" rx="3" fill="#252525"/>
<rect x="170" y="530" width="344.5" height="20" rx="3" fill="#7048e8"/>
<text x="746" y="542" text-anchor="end" fill="#e0e0e0" font-size="11">133.1 µs</text>
<text x="828" y="542" text-anchor="end" fill="#666" font-size="10">71.7 MB/s</text>
<text x="154" y="570" text-anchor="end" fill="#777" font-size="11" font-weight="400">md4w</text>
<rect x="170" y="558" width="493" height="20" rx="3" fill="#252525"/>
<rect x="170" y="558" width="342.4" height="20" rx="3" fill="#0ea5e9"/>
<text x="746" y="570" text-anchor="end" fill="#e0e0e0" font-size="11">133.9 µs</text>
<text x="828" y="570" text-anchor="end" fill="#666" font-size="10">71.2 MB/s</text>
<rect x="32" y="602" width="816" height="138" rx="6" fill="#1a1a1a" stroke="#2a2a2a"/>
<text x="48" y="630" fill="#aaa" font-size="12" font-weight="500">mixed 97.7 KB (97.7 KB)</text>
<rect x="675.5" y="618" width="156.5" height="18" rx="3" fill="none" stroke="#e8590c" stroke-opacity="0.6"/>
<text x="683.5" y="629.5" fill="#fff" font-size="10" font-weight="600">ironmark</text>
<text x="741.1" y="629.5" fill="#8f8" font-size="9.5">1.4x faster</text>
<text x="154" y="660" text-anchor="end" fill="#fff" font-size="11" font-weight="600">ironmark</text>
<rect x="170" y="648" width="493" height="20" rx="3" fill="#252525"/>
<rect x="170" y="648" width="493.0" height="20" rx="3" fill="#e8590c"/>
<text x="746" y="660" text-anchor="end" fill="#e0e0e0" font-size="11">952.5 µs</text>
<text x="828" y="660" text-anchor="end" fill="#666" font-size="10">100.1 MB/s</text>
<text x="154" y="688" text-anchor="end" fill="#777" font-size="11" font-weight="400">md4w</text>
<rect x="170" y="676" width="493" height="20" rx="3" fill="#252525"/>
<rect x="170" y="676" width="353.3" height="20" rx="3" fill="#0ea5e9"/>
<text x="746" y="688" text-anchor="end" fill="#e0e0e0" font-size="11">1.33 ms</text>
<text x="828" y="688" text-anchor="end" fill="#666" font-size="10">71.8 MB/s</text>
<text x="154" y="716" text-anchor="end" fill="#777" font-size="11" font-weight="400">markdown-wasm</text>
<rect x="170" y="704" width="493" height="20" rx="3" fill="#252525"/>
<rect x="170" y="704" width="349.4" height="20" rx="3" fill="#7048e8"/>
<text x="746" y="716" text-anchor="end" fill="#e0e0e0" font-size="11">1.34 ms</text>
<text x="828" y="716" text-anchor="end" fill="#666" font-size="10">71.0 MB/s</text>
<text x="32" y="778" fill="#ccc" font-size="14" font-weight="600">Block Types</text>
<rect x="32" y="788" width="816" height="138" rx="6" fill="#1a1a1a" stroke="#2a2a2a"/>
<text x="48" y="816" fill="#aaa" font-size="12" font-weight="500">headings (10.3 KB)</text>
<rect x="675.5" y="804" width="156.5" height="18" rx="3" fill="none" stroke="#e8590c" stroke-opacity="0.6"/>
<text x="683.5" y="815.5" fill="#fff" font-size="10" font-weight="600">ironmark</text>
<text x="741.1" y="815.5" fill="#8f8" font-size="9.5">1.4x faster</text>
<text x="154" y="846" text-anchor="end" fill="#fff" font-size="11" font-weight="600">ironmark</text>
<rect x="170" y="834" width="493" height="20" rx="3" fill="#252525"/>
<rect x="170" y="834" width="493.0" height="20" rx="3" fill="#e8590c"/>
<text x="746" y="846" text-anchor="end" fill="#e0e0e0" font-size="11">64.6 µs</text>
<text x="828" y="846" text-anchor="end" fill="#666" font-size="10">156.1 MB/s</text>
<text x="154" y="874" text-anchor="end" fill="#777" font-size="11" font-weight="400">markdown-wasm</text>
<rect x="170" y="862" width="493" height="20" rx="3" fill="#252525"/>
<rect x="170" y="862" width="354.5" height="20" rx="3" fill="#7048e8"/>
<text x="746" y="874" text-anchor="end" fill="#e0e0e0" font-size="11">89.9 µs</text>
<text x="828" y="874" text-anchor="end" fill="#666" font-size="10">112.3 MB/s</text>
<text x="154" y="902" text-anchor="end" fill="#777" font-size="11" font-weight="400">md4w</text>
<rect x="170" y="890" width="493" height="20" rx="3" fill="#252525"/>
<rect x="170" y="890" width="328.6" height="20" rx="3" fill="#0ea5e9"/>
<text x="746" y="902" text-anchor="end" fill="#e0e0e0" font-size="11">97.0 µs</text>
<text x="828" y="902" text-anchor="end" fill="#666" font-size="10">104.1 MB/s</text>
<rect x="32" y="934" width="816" height="138" rx="6" fill="#1a1a1a" stroke="#2a2a2a"/>
<text x="48" y="962" fill="#aaa" font-size="12" font-weight="500">nested lists (2.9 KB)</text>
<rect x="675.5" y="950" width="156.5" height="18" rx="3" fill="none" stroke="#e8590c" stroke-opacity="0.6"/>
<text x="683.5" y="961.5" fill="#fff" font-size="10" font-weight="600">ironmark</text>
<text x="741.1" y="961.5" fill="#8f8" font-size="9.5">1.0x faster</text>
<text x="154" y="992" text-anchor="end" fill="#fff" font-size="11" font-weight="600">ironmark</text>
<rect x="170" y="980" width="493" height="20" rx="3" fill="#252525"/>
<rect x="170" y="980" width="493.0" height="20" rx="3" fill="#e8590c"/>
<text x="746" y="992" text-anchor="end" fill="#e0e0e0" font-size="11">17.2 µs</text>
<text x="828" y="992" text-anchor="end" fill="#666" font-size="10">162.9 MB/s</text>
<text x="154" y="1020" text-anchor="end" fill="#777" font-size="11" font-weight="400">md4w</text>
<rect x="170" y="1008" width="493" height="20" rx="3" fill="#252525"/>
<rect x="170" y="1008" width="485.9" height="20" rx="3" fill="#0ea5e9"/>
<text x="746" y="1020" text-anchor="end" fill="#e0e0e0" font-size="11">17.5 µs</text>
<text x="828" y="1020" text-anchor="end" fill="#666" font-size="10">160.6 MB/s</text>
<text x="154" y="1048" text-anchor="end" fill="#777" font-size="11" font-weight="400">markdown-wasm</text>
<rect x="170" y="1036" width="493" height="20" rx="3" fill="#252525"/>
<rect x="170" y="1036" width="468.1" height="20" rx="3" fill="#7048e8"/>
<text x="746" y="1048" text-anchor="end" fill="#e0e0e0" font-size="11">18.1 µs</text>
<text x="828" y="1048" text-anchor="end" fill="#666" font-size="10">154.7 MB/s</text>
<rect x="32" y="1080" width="816" height="138" rx="6" fill="#1a1a1a" stroke="#2a2a2a"/>
<text x="48" y="1108" fill="#aaa" font-size="12" font-weight="500">table (100x10) (8.0 KB)</text>
<rect x="675.5" y="1096" width="156.5" height="18" rx="3" fill="none" stroke="#e8590c" stroke-opacity="0.6"/>
<text x="683.5" y="1107.5" fill="#fff" font-size="10" font-weight="600">ironmark</text>
<text x="741.1" y="1107.5" fill="#8f8" font-size="9.5">2.0x faster</text>
<text x="154" y="1138" text-anchor="end" fill="#fff" font-size="11" font-weight="600">ironmark</text>
<rect x="170" y="1126" width="493" height="20" rx="3" fill="#252525"/>
<rect x="170" y="1126" width="493.0" height="20" rx="3" fill="#e8590c"/>
<text x="746" y="1138" text-anchor="end" fill="#e0e0e0" font-size="11">60.1 µs</text>
<text x="828" y="1138" text-anchor="end" fill="#666" font-size="10">130.7 MB/s</text>
<text x="154" y="1166" text-anchor="end" fill="#777" font-size="11" font-weight="400">md4w</text>
<rect x="170" y="1154" width="493" height="20" rx="3" fill="#252525"/>
<rect x="170" y="1154" width="251.7" height="20" rx="3" fill="#0ea5e9"/>
<text x="746" y="1166" text-anchor="end" fill="#e0e0e0" font-size="11">117.7 µs</text>
<text x="828" y="1166" text-anchor="end" fill="#666" font-size="10">66.7 MB/s</text>
<text x="154" y="1194" text-anchor="end" fill="#777" font-size="11" font-weight="400">markdown-wasm</text>
<rect x="170" y="1182" width="493" height="20" rx="3" fill="#252525"/>
<rect x="170" y="1182" width="196.5" height="20" rx="3" fill="#7048e8"/>
<text x="746" y="1194" text-anchor="end" fill="#e0e0e0" font-size="11">150.7 µs</text>
<text x="828" y="1194" text-anchor="end" fill="#666" font-size="10">52.1 MB/s</text>
<rect x="32" y="1226" width="816" height="138" rx="6" fill="#1a1a1a" stroke="#2a2a2a"/>
<text x="48" y="1254" fill="#aaa" font-size="12" font-weight="500">code blocks (5.2 KB)</text>
<rect x="675.5" y="1242" width="156.5" height="18" rx="3" fill="none" stroke="#e8590c" stroke-opacity="0.6"/>
<text x="683.5" y="1253.5" fill="#fff" font-size="10" font-weight="600">ironmark</text>
<text x="741.1" y="1253.5" fill="#8f8" font-size="9.5">1.1x faster</text>
<text x="154" y="1284" text-anchor="end" fill="#fff" font-size="11" font-weight="600">ironmark</text>
<rect x="170" y="1272" width="493" height="20" rx="3" fill="#252525"/>
<rect x="170" y="1272" width="493.0" height="20" rx="3" fill="#e8590c"/>
<text x="746" y="1284" text-anchor="end" fill="#e0e0e0" font-size="11">34.7 µs</text>
<text x="828" y="1284" text-anchor="end" fill="#666" font-size="10">145.5 MB/s</text>
<text x="154" y="1312" text-anchor="end" fill="#777" font-size="11" font-weight="400">md4w</text>
<rect x="170" y="1300" width="493" height="20" rx="3" fill="#252525"/>
<rect x="170" y="1300" width="452.7" height="20" rx="3" fill="#0ea5e9"/>
<text x="746" y="1312" text-anchor="end" fill="#e0e0e0" font-size="11">37.7 µs</text>
<text x="828" y="1312" text-anchor="end" fill="#666" font-size="10">133.6 MB/s</text>
<text x="154" y="1340" text-anchor="end" fill="#777" font-size="11" font-weight="400">markdown-wasm</text>
<rect x="170" y="1328" width="493" height="20" rx="3" fill="#252525"/>
<rect x="170" y="1328" width="451.2" height="20" rx="3" fill="#7048e8"/>
<text x="746" y="1340" text-anchor="end" fill="#e0e0e0" font-size="11">37.9 µs</text>
<text x="828" y="1340" text-anchor="end" fill="#666" font-size="10">133.2 MB/s</text>
<text x="32" y="1402" fill="#ccc" font-size="14" font-weight="600">Inline-heavy</text>
<rect x="32" y="1412" width="816" height="138" rx="6" fill="#1a1a1a" stroke="#2a2a2a"/>
<text x="48" y="1440" fill="#aaa" font-size="12" font-weight="500">inline heavy (16.7 KB)</text>
<rect x="675.5" y="1428" width="156.5" height="18" rx="3" fill="none" stroke="#e8590c" stroke-opacity="0.6"/>
<text x="683.5" y="1439.5" fill="#fff" font-size="10" font-weight="600">ironmark</text>
<text x="741.1" y="1439.5" fill="#8f8" font-size="9.5">1.5x faster</text>
<text x="154" y="1470" text-anchor="end" fill="#fff" font-size="11" font-weight="600">ironmark</text>
<rect x="170" y="1458" width="493" height="20" rx="3" fill="#252525"/>
<rect x="170" y="1458" width="493.0" height="20" rx="3" fill="#e8590c"/>
<text x="746" y="1470" text-anchor="end" fill="#e0e0e0" font-size="11">151.7 µs</text>
<text x="828" y="1470" text-anchor="end" fill="#666" font-size="10">107.4 MB/s</text>
<text x="154" y="1498" text-anchor="end" fill="#777" font-size="11" font-weight="400">md4w</text>
<rect x="170" y="1486" width="493" height="20" rx="3" fill="#252525"/>
<rect x="170" y="1486" width="333.3" height="20" rx="3" fill="#0ea5e9"/>
<text x="746" y="1498" text-anchor="end" fill="#e0e0e0" font-size="11">224.4 µs</text>
<text x="828" y="1498" text-anchor="end" fill="#666" font-size="10">72.6 MB/s</text>
<text x="154" y="1526" text-anchor="end" fill="#777" font-size="11" font-weight="400">markdown-wasm</text>
<rect x="170" y="1514" width="493" height="20" rx="3" fill="#252525"/>
<rect x="170" y="1514" width="332.2" height="20" rx="3" fill="#7048e8"/>
<text x="746" y="1526" text-anchor="end" fill="#e0e0e0" font-size="11">225.1 µs</text>
<text x="828" y="1526" text-anchor="end" fill="#666" font-size="10">72.4 MB/s</text></g>
<text x="440" y="3848" text-anchor="middle" fill="#666" font-size="10">Bars show throughput (longer is faster). Generated on 2026-03-16.</text>
</svg>