<svg xmlns="http://www.w3.org/2000/svg" width="880" height="3868" viewBox="0 0 880 3868">
<style>text { font-family: -apple-system, BlinkMacSystemFont, "Segoe UI", Roboto, Helvetica, Arial, sans-serif; }</style>
<rect width="880" height="3868" fill="#0f0f0f"/>
<text x="440" y="28" text-anchor="middle" fill="#fff" font-size="26" font-weight="700" letter-spacing="-0.5">ironmark</text>
<text x="440" y="50" text-anchor="middle" fill="#888" font-size="13">benchmark results</text>
<g transform="translate(0,72)"><text x="440" y="24" text-anchor="middle" fill="#fff" font-size="20" font-weight="700">Native Rust</text>
<text x="440" y="46" text-anchor="middle" fill="#888" font-size="12">ironmark vs pulldown-cmark vs comrak vs markdown-rs — cargo bench (criterion)</text>
<rect x="160" y="60" width="10" height="10" rx="2" fill="#e8590c"/>
<text x="176" y="69" fill="#aaa" font-size="11">ironmark</text>
<rect x="300" y="60" width="10" height="10" rx="2" fill="#1971c2"/>
<text x="316" y="69" fill="#aaa" font-size="11">pulldown-cmark</text>
<rect x="440" y="60" width="10" height="10" rx="2" fill="#2f9e44"/>
<text x="456" y="69" fill="#aaa" font-size="11">comrak</text>
<rect x="580" y="60" width="10" height="10" rx="2" fill="#c2185b"/>
<text x="596" y="69" fill="#aaa" font-size="11">markdown-rs</text>
<text x="32" y="114" fill="#ccc" font-size="14" font-weight="600">CommonMark Spec</text>
<rect x="32" y="124" width="816" height="166" rx="6" fill="#1a1a1a" stroke="#2a2a2a"/>
<text x="48" y="152" fill="#aaa" font-size="12" font-weight="500">commonmark_spec (15.2 KB)</text>
<rect x="675.5" y="140" width="156.5" height="18" rx="3" fill="none" stroke="#e8590c" stroke-opacity="0.6"/>
<text x="683.5" y="151.5" fill="#fff" font-size="10" font-weight="600">ironmark</text>
<text x="741.1" y="151.5" fill="#8f8" font-size="9.5">1.1x faster</text>
<text x="154" y="182" text-anchor="end" fill="#fff" font-size="11" font-weight="600">ironmark</text>
<rect x="170" y="170" width="493" height="20" rx="3" fill="#252525"/>
<rect x="170" y="170" width="493.0" height="20" rx="3" fill="#e8590c"/>
<text x="746" y="182" text-anchor="end" fill="#e0e0e0" font-size="11">180.4 µs</text>
<text x="828" y="182" text-anchor="end" fill="#666" font-size="10">82.3 MB/s</text>
<text x="154" y="210" text-anchor="end" fill="#777" font-size="11" font-weight="400">pulldown-cmark</text>
<rect x="170" y="198" width="493" height="20" rx="3" fill="#252525"/>
<rect x="170" y="198" width="434.5" height="20" rx="3" fill="#1971c2"/>
<text x="746" y="210" text-anchor="end" fill="#e0e0e0" font-size="11">204.7 µs</text>
<text x="828" y="210" text-anchor="end" fill="#666" font-size="10">72.5 MB/s</text>
<text x="154" y="238" text-anchor="end" fill="#777" font-size="11" font-weight="400">comrak</text>
<rect x="170" y="226" width="493" height="20" rx="3" fill="#252525"/>
<rect x="170" y="226" width="122.0" height="20" rx="3" fill="#2f9e44"/>
<text x="746" y="238" text-anchor="end" fill="#e0e0e0" font-size="11">728.8 µs</text>
<text x="828" y="238" text-anchor="end" fill="#666" font-size="10">20.4 MB/s</text>
<text x="154" y="266" text-anchor="end" fill="#777" font-size="11" font-weight="400">markdown-rs</text>
<rect x="170" y="254" width="493" height="20" rx="3" fill="#252525"/>
<rect x="170" y="254" width="17.8" height="20" rx="3" fill="#c2185b"/>
<text x="746" y="266" text-anchor="end" fill="#e0e0e0" font-size="11">4.99 ms</text>
<text x="828" y="266" text-anchor="end" fill="#666" font-size="10">3.0 MB/s</text>
<text x="32" y="328" fill="#ccc" font-size="14" font-weight="600">Document Sizes</text>
<rect x="32" y="338" width="816" height="166" rx="6" fill="#1a1a1a" stroke="#2a2a2a"/>
<text x="48" y="366" fill="#aaa" font-size="12" font-weight="500">1000 bytes (1000 B)</text>
<rect x="675.5" y="354" width="156.5" height="18" rx="3" fill="none" stroke="#e8590c" stroke-opacity="0.6"/>
<text x="683.5" y="365.5" fill="#fff" font-size="10" font-weight="600">ironmark</text>
<text x="741.1" y="365.5" fill="#8f8" font-size="9.5">1.6x faster</text>
<text x="154" y="396" text-anchor="end" fill="#fff" font-size="11" font-weight="600">ironmark</text>
<rect x="170" y="384" width="493" height="20" rx="3" fill="#252525"/>
<rect x="170" y="384" width="493.0" height="20" rx="3" fill="#e8590c"/>
<text x="746" y="396" text-anchor="end" fill="#e0e0e0" font-size="11">5.4 µs</text>
<text x="828" y="396" text-anchor="end" fill="#666" font-size="10">177.1 MB/s</text>
<text x="154" y="424" text-anchor="end" fill="#777" font-size="11" font-weight="400">pulldown-cmark</text>
<rect x="170" y="412" width="493" height="20" rx="3" fill="#252525"/>
<rect x="170" y="412" width="306.0" height="20" rx="3" fill="#1971c2"/>
<text x="746" y="424" text-anchor="end" fill="#e0e0e0" font-size="11">8.7 µs</text>
<text x="828" y="424" text-anchor="end" fill="#666" font-size="10">109.9 MB/s</text>
<text x="154" y="452" text-anchor="end" fill="#777" font-size="11" font-weight="400">comrak</text>
<rect x="170" y="440" width="493" height="20" rx="3" fill="#252525"/>
<rect x="170" y="440" width="95.3" height="20" rx="3" fill="#2f9e44"/>
<text x="746" y="452" text-anchor="end" fill="#e0e0e0" font-size="11">27.9 µs</text>
<text x="828" y="452" text-anchor="end" fill="#666" font-size="10">34.2 MB/s</text>
<text x="154" y="480" text-anchor="end" fill="#777" font-size="11" font-weight="400">markdown-rs</text>
<rect x="170" y="468" width="493" height="20" rx="3" fill="#252525"/>
<rect x="170" y="468" width="17.8" height="20" rx="3" fill="#c2185b"/>
<text x="746" y="480" text-anchor="end" fill="#e0e0e0" font-size="11">148.7 µs</text>
<text x="828" y="480" text-anchor="end" fill="#666" font-size="10">6.4 MB/s</text>
<rect x="32" y="512" width="816" height="166" rx="6" fill="#1a1a1a" stroke="#2a2a2a"/>
<text x="48" y="540" fill="#aaa" font-size="12" font-weight="500">10000 bytes (9.8 KB)</text>
<rect x="675.5" y="528" width="156.5" height="18" rx="3" fill="none" stroke="#e8590c" stroke-opacity="0.6"/>
<text x="683.5" y="539.5" fill="#fff" font-size="10" font-weight="600">ironmark</text>
<text x="741.1" y="539.5" fill="#8f8" font-size="9.5">1.7x faster</text>
<text x="154" y="570" text-anchor="end" fill="#fff" font-size="11" font-weight="600">ironmark</text>
<rect x="170" y="558" width="493" height="20" rx="3" fill="#252525"/>
<rect x="170" y="558" width="493.0" height="20" rx="3" fill="#e8590c"/>
<text x="746" y="570" text-anchor="end" fill="#e0e0e0" font-size="11">49.3 µs</text>
<text x="828" y="570" text-anchor="end" fill="#666" font-size="10">193.3 MB/s</text>
<text x="154" y="598" text-anchor="end" fill="#777" font-size="11" font-weight="400">pulldown-cmark</text>
<rect x="170" y="586" width="493" height="20" rx="3" fill="#252525"/>
<rect x="170" y="586" width="297.1" height="20" rx="3" fill="#1971c2"/>
<text x="746" y="598" text-anchor="end" fill="#e0e0e0" font-size="11">81.9 µs</text>
<text x="828" y="598" text-anchor="end" fill="#666" font-size="10">116.5 MB/s</text>
<text x="154" y="626" text-anchor="end" fill="#777" font-size="11" font-weight="400">comrak</text>
<rect x="170" y="614" width="493" height="20" rx="3" fill="#252525"/>
<rect x="170" y="614" width="89.4" height="20" rx="3" fill="#2f9e44"/>
<text x="746" y="626" text-anchor="end" fill="#e0e0e0" font-size="11">272.0 µs</text>
<text x="828" y="626" text-anchor="end" fill="#666" font-size="10">35.1 MB/s</text>
<text x="154" y="654" text-anchor="end" fill="#777" font-size="11" font-weight="400">markdown-rs</text>
<rect x="170" y="642" width="493" height="20" rx="3" fill="#252525"/>
<rect x="170" y="642" width="17.2" height="20" rx="3" fill="#c2185b"/>
<text x="746" y="654" text-anchor="end" fill="#e0e0e0" font-size="11">1.42 ms</text>
<text x="828" y="654" text-anchor="end" fill="#666" font-size="10">6.7 MB/s</text>
<rect x="32" y="686" width="816" height="166" rx="6" fill="#1a1a1a" stroke="#2a2a2a"/>
<text x="48" y="714" fill="#aaa" font-size="12" font-weight="500">100000 bytes (97.7 KB)</text>
<rect x="675.5" y="702" width="156.5" height="18" rx="3" fill="none" stroke="#e8590c" stroke-opacity="0.6"/>
<text x="683.5" y="713.5" fill="#fff" font-size="10" font-weight="600">ironmark</text>
<text x="741.1" y="713.5" fill="#8f8" font-size="9.5">1.7x faster</text>
<text x="154" y="744" text-anchor="end" fill="#fff" font-size="11" font-weight="600">ironmark</text>
<rect x="170" y="732" width="493" height="20" rx="3" fill="#252525"/>
<rect x="170" y="732" width="493.0" height="20" rx="3" fill="#e8590c"/>
<text x="746" y="744" text-anchor="end" fill="#e0e0e0" font-size="11">481.6 µs</text>
<text x="828" y="744" text-anchor="end" fill="#666" font-size="10">198.0 MB/s</text>
<text x="154" y="772" text-anchor="end" fill="#777" font-size="11" font-weight="400">pulldown-cmark</text>
<rect x="170" y="760" width="493" height="20" rx="3" fill="#252525"/>
<rect x="170" y="760" width="298.5" height="20" rx="3" fill="#1971c2"/>
<text x="746" y="772" text-anchor="end" fill="#e0e0e0" font-size="11">795.4 µs</text>
<text x="828" y="772" text-anchor="end" fill="#666" font-size="10">119.9 MB/s</text>
<text x="154" y="800" text-anchor="end" fill="#777" font-size="11" font-weight="400">comrak</text>
<rect x="170" y="788" width="493" height="20" rx="3" fill="#252525"/>
<rect x="170" y="788" width="87.3" height="20" rx="3" fill="#2f9e44"/>
<text x="746" y="800" text-anchor="end" fill="#e0e0e0" font-size="11">2.72 ms</text>
<text x="828" y="800" text-anchor="end" fill="#666" font-size="10">35.1 MB/s</text>
<text x="154" y="828" text-anchor="end" fill="#777" font-size="11" font-weight="400">markdown-rs</text>
<rect x="170" y="816" width="493" height="20" rx="3" fill="#252525"/>
<rect x="170" y="816" width="14.8" height="20" rx="3" fill="#c2185b"/>
<text x="746" y="828" text-anchor="end" fill="#e0e0e0" font-size="11">16.02 ms</text>
<text x="828" y="828" text-anchor="end" fill="#666" font-size="10">6.0 MB/s</text>
<rect x="32" y="860" width="816" height="166" rx="6" fill="#1a1a1a" stroke="#2a2a2a"/>
<text x="48" y="888" fill="#aaa" font-size="12" font-weight="500">1000000 bytes (976.6 KB)</text>
<rect x="675.5" y="876" width="156.5" height="18" rx="3" fill="none" stroke="#e8590c" stroke-opacity="0.6"/>
<text x="683.5" y="887.5" fill="#fff" font-size="10" font-weight="600">ironmark</text>
<text x="741.1" y="887.5" fill="#8f8" font-size="9.5">2.0x faster</text>
<text x="154" y="918" text-anchor="end" fill="#fff" font-size="11" font-weight="600">ironmark</text>
<rect x="170" y="906" width="493" height="20" rx="3" fill="#252525"/>
<rect x="170" y="906" width="493.0" height="20" rx="3" fill="#e8590c"/>
<text x="746" y="918" text-anchor="end" fill="#e0e0e0" font-size="11">4.85 ms</text>
<text x="828" y="918" text-anchor="end" fill="#666" font-size="10">196.8 MB/s</text>
<text x="154" y="946" text-anchor="end" fill="#777" font-size="11" font-weight="400">pulldown-cmark</text>
<rect x="170" y="934" width="493" height="20" rx="3" fill="#252525"/>
<rect x="170" y="934" width="244.8" height="20" rx="3" fill="#1971c2"/>
<text x="746" y="946" text-anchor="end" fill="#e0e0e0" font-size="11">9.76 ms</text>
<text x="828" y="946" text-anchor="end" fill="#666" font-size="10">97.7 MB/s</text>
<text x="154" y="974" text-anchor="end" fill="#777" font-size="11" font-weight="400">comrak</text>
<rect x="170" y="962" width="493" height="20" rx="3" fill="#252525"/>
<rect x="170" y="962" width="81.4" height="20" rx="3" fill="#2f9e44"/>
<text x="746" y="974" text-anchor="end" fill="#e0e0e0" font-size="11">29.34 ms</text>
<text x="828" y="974" text-anchor="end" fill="#666" font-size="10">32.5 MB/s</text>
<text x="154" y="1002" text-anchor="end" fill="#777" font-size="11" font-weight="400">markdown-rs</text>
<rect x="170" y="990" width="493" height="20" rx="3" fill="#252525"/>
<rect x="170" y="990" width="6.7" height="20" rx="3" fill="#c2185b"/>
<text x="746" y="1002" text-anchor="end" fill="#e0e0e0" font-size="11">357.71 ms</text>
<text x="828" y="1002" text-anchor="end" fill="#666" font-size="10">2.7 MB/s</text>
<rect x="32" y="1034" width="816" height="166" rx="6" fill="#1a1a1a" stroke="#2a2a2a"/>
<text x="48" y="1062" fill="#aaa" font-size="12" font-weight="500">5000000 bytes (4.8 MB)</text>
<rect x="675.5" y="1050" width="156.5" height="18" rx="3" fill="none" stroke="#e8590c" stroke-opacity="0.6"/>
<text x="683.5" y="1061.5" fill="#fff" font-size="10" font-weight="600">ironmark</text>
<text x="741.1" y="1061.5" fill="#8f8" font-size="9.5">2.6x faster</text>
<text x="154" y="1092" text-anchor="end" fill="#fff" font-size="11" font-weight="600">ironmark</text>
<rect x="170" y="1080" width="493" height="20" rx="3" fill="#252525"/>
<rect x="170" y="1080" width="493.0" height="20" rx="3" fill="#e8590c"/>
<text x="746" y="1092" text-anchor="end" fill="#e0e0e0" font-size="11">25.83 ms</text>
<text x="828" y="1092" text-anchor="end" fill="#666" font-size="10">184.6 MB/s</text>
<text x="154" y="1120" text-anchor="end" fill="#777" font-size="11" font-weight="400">pulldown-cmark</text>
<rect x="170" y="1108" width="493" height="20" rx="3" fill="#252525"/>
<rect x="170" y="1108" width="192.2" height="20" rx="3" fill="#1971c2"/>
<text x="746" y="1120" text-anchor="end" fill="#e0e0e0" font-size="11">66.24 ms</text>
<text x="828" y="1120" text-anchor="end" fill="#666" font-size="10">72.0 MB/s</text>
<text x="154" y="1148" text-anchor="end" fill="#777" font-size="11" font-weight="400">comrak</text>
<rect x="170" y="1136" width="493" height="20" rx="3" fill="#252525"/>
<rect x="170" y="1136" width="85.2" height="20" rx="3" fill="#2f9e44"/>
<text x="746" y="1148" text-anchor="end" fill="#e0e0e0" font-size="11">149.45 ms</text>
<text x="828" y="1148" text-anchor="end" fill="#666" font-size="10">31.9 MB/s</text>
<text x="154" y="1176" text-anchor="end" fill="#777" font-size="11" font-weight="400">markdown-rs</text>
<rect x="170" y="1164" width="493" height="20" rx="3" fill="#252525"/>
<rect x="170" y="1164" width="2.2" height="20" rx="3" fill="#c2185b"/>
<text x="746" y="1176" text-anchor="end" fill="#e0e0e0" font-size="11">5767.62 ms</text>
<text x="828" y="1176" text-anchor="end" fill="#666" font-size="10">0.8 MB/s</text>
<text x="32" y="1238" fill="#ccc" font-size="14" font-weight="600">Block Types</text>
<rect x="32" y="1248" width="816" height="166" rx="6" fill="#1a1a1a" stroke="#2a2a2a"/>
<text x="48" y="1276" fill="#aaa" font-size="12" font-weight="500">code_blocks (5.2 KB)</text>
<rect x="636.5" y="1264" width="195.5" height="18" rx="3" fill="none" stroke="#1971c2" stroke-opacity="0.6"/>
<text x="644.5" y="1275.5" fill="#fff" font-size="10" font-weight="600">pulldown-cmark</text>
<text x="739.3" y="1275.5" fill="#8f8" font-size="9.5">1.2x faster</text>
<text x="154" y="1306" text-anchor="end" fill="#fff" font-size="11" font-weight="600">pulldown-cmark</text>
<rect x="170" y="1294" width="493" height="20" rx="3" fill="#252525"/>
<rect x="170" y="1294" width="493.0" height="20" rx="3" fill="#1971c2"/>
<text x="746" y="1306" text-anchor="end" fill="#e0e0e0" font-size="11">15.6 µs</text>
<text x="828" y="1306" text-anchor="end" fill="#666" font-size="10">323.0 MB/s</text>
<text x="154" y="1334" text-anchor="end" fill="#777" font-size="11" font-weight="400">ironmark</text>
<rect x="170" y="1322" width="493" height="20" rx="3" fill="#252525"/>
<rect x="170" y="1322" width="405.6" height="20" rx="3" fill="#e8590c"/>
<text x="746" y="1334" text-anchor="end" fill="#e0e0e0" font-size="11">19.0 µs</text>
<text x="828" y="1334" text-anchor="end" fill="#666" font-size="10">265.7 MB/s</text>
<text x="154" y="1362" text-anchor="end" fill="#777" font-size="11" font-weight="400">comrak</text>
<rect x="170" y="1350" width="493" height="20" rx="3" fill="#252525"/>
<rect x="170" y="1350" width="81.6" height="20" rx="3" fill="#2f9e44"/>
<text x="746" y="1362" text-anchor="end" fill="#e0e0e0" font-size="11">94.3 µs</text>
<text x="828" y="1362" text-anchor="end" fill="#666" font-size="10">53.5 MB/s</text>
<text x="154" y="1390" text-anchor="end" fill="#777" font-size="11" font-weight="400">markdown-rs</text>
<rect x="170" y="1378" width="493" height="20" rx="3" fill="#252525"/>
<rect x="170" y="1378" width="17.5" height="20" rx="3" fill="#c2185b"/>
<text x="746" y="1390" text-anchor="end" fill="#e0e0e0" font-size="11">441.2 µs</text>
<text x="828" y="1390" text-anchor="end" fill="#666" font-size="10">11.4 MB/s</text>
<rect x="32" y="1422" width="816" height="166" rx="6" fill="#1a1a1a" stroke="#2a2a2a"/>
<text x="48" y="1450" fill="#aaa" font-size="12" font-weight="500">headings (10.3 KB)</text>
<rect x="675.5" y="1438" width="156.5" height="18" rx="3" fill="none" stroke="#e8590c" stroke-opacity="0.6"/>
<text x="683.5" y="1449.5" fill="#fff" font-size="10" font-weight="600">ironmark</text>
<text x="741.1" y="1449.5" fill="#8f8" font-size="9.5">1.2x faster</text>
<text x="154" y="1480" text-anchor="end" fill="#fff" font-size="11" font-weight="600">ironmark</text>
<rect x="170" y="1468" width="493" height="20" rx="3" fill="#252525"/>
<rect x="170" y="1468" width="493.0" height="20" rx="3" fill="#e8590c"/>
<text x="746" y="1480" text-anchor="end" fill="#e0e0e0" font-size="11">34.1 µs</text>
<text x="828" y="1480" text-anchor="end" fill="#666" font-size="10">296.2 MB/s</text>
<text x="154" y="1508" text-anchor="end" fill="#777" font-size="11" font-weight="400">pulldown-cmark</text>
<rect x="170" y="1496" width="493" height="20" rx="3" fill="#252525"/>
<rect x="170" y="1496" width="423.8" height="20" rx="3" fill="#1971c2"/>
<text x="746" y="1508" text-anchor="end" fill="#e0e0e0" font-size="11">39.6 µs</text>
<text x="828" y="1508" text-anchor="end" fill="#666" font-size="10">254.6 MB/s</text>
<text x="154" y="1536" text-anchor="end" fill="#777" font-size="11" font-weight="400">comrak</text>
<rect x="170" y="1524" width="493" height="20" rx="3" fill="#252525"/>
<rect x="170" y="1524" width="94.8" height="20" rx="3" fill="#2f9e44"/>
<text x="746" y="1536" text-anchor="end" fill="#e0e0e0" font-size="11">177.2 µs</text>
<text x="828" y="1536" text-anchor="end" fill="#666" font-size="10">57.0 MB/s</text>
<text x="154" y="1564" text-anchor="end" fill="#777" font-size="11" font-weight="400">markdown-rs</text>
<rect x="170" y="1552" width="493" height="20" rx="3" fill="#252525"/>
<rect x="170" y="1552" width="15.3" height="20" rx="3" fill="#c2185b"/>
<text x="746" y="1564" text-anchor="end" fill="#e0e0e0" font-size="11">1.10 ms</text>
<text x="828" y="1564" text-anchor="end" fill="#666" font-size="10">9.2 MB/s</text>
<rect x="32" y="1596" width="816" height="166" rx="6" fill="#1a1a1a" stroke="#2a2a2a"/>
<text x="48" y="1624" fill="#aaa" font-size="12" font-weight="500">nested_lists (2.9 KB)</text>
<rect x="675.5" y="1612" width="156.5" height="18" rx="3" fill="none" stroke="#e8590c" stroke-opacity="0.6"/>
<text x="683.5" y="1623.5" fill="#fff" font-size="10" font-weight="600">ironmark</text>
<text x="741.1" y="1623.5" fill="#8f8" font-size="9.5">1.4x faster</text>
<text x="154" y="1654" text-anchor="end" fill="#fff" font-size="11" font-weight="600">ironmark</text>
<rect x="170" y="1642" width="493" height="20" rx="3" fill="#252525"/>
<rect x="170" y="1642" width="493.0" height="20" rx="3" fill="#e8590c"/>
<text x="746" y="1654" text-anchor="end" fill="#e0e0e0" font-size="11">11.4 µs</text>
<text x="828" y="1654" text-anchor="end" fill="#666" font-size="10">245.3 MB/s</text>
<text x="154" y="1682" text-anchor="end" fill="#777" font-size="11" font-weight="400">pulldown-cmark</text>
<rect x="170" y="1670" width="493" height="20" rx="3" fill="#252525"/>
<rect x="170" y="1670" width="345.6" height="20" rx="3" fill="#1971c2"/>
<text x="746" y="1682" text-anchor="end" fill="#e0e0e0" font-size="11">16.3 µs</text>
<text x="828" y="1682" text-anchor="end" fill="#666" font-size="10">171.9 MB/s</text>
<text x="154" y="1710" text-anchor="end" fill="#777" font-size="11" font-weight="400">comrak</text>
<rect x="170" y="1698" width="493" height="20" rx="3" fill="#252525"/>
<rect x="170" y="1698" width="139.1" height="20" rx="3" fill="#2f9e44"/>
<text x="746" y="1710" text-anchor="end" fill="#e0e0e0" font-size="11">40.5 µs</text>
<text x="828" y="1710" text-anchor="end" fill="#666" font-size="10">69.2 MB/s</text>
<text x="154" y="1738" text-anchor="end" fill="#777" font-size="11" font-weight="400">markdown-rs</text>
<rect x="170" y="1726" width="493" height="20" rx="3" fill="#252525"/>
<rect x="170" y="1726" width="7.2" height="20" rx="3" fill="#c2185b"/>
<text x="746" y="1738" text-anchor="end" fill="#e0e0e0" font-size="11">784.1 µs</text>
<text x="828" y="1738" text-anchor="end" fill="#666" font-size="10">3.6 MB/s</text>
<rect x="32" y="1770" width="816" height="166" rx="6" fill="#1a1a1a" stroke="#2a2a2a"/>
<text x="48" y="1798" fill="#aaa" font-size="12" font-weight="500">table (8.0 KB)</text>
<rect x="675.5" y="1786" width="156.5" height="18" rx="3" fill="none" stroke="#e8590c" stroke-opacity="0.6"/>
<text x="683.5" y="1797.5" fill="#fff" font-size="10" font-weight="600">ironmark</text>
<text x="741.1" y="1797.5" fill="#8f8" font-size="9.5">1.3x faster</text>
<text x="154" y="1828" text-anchor="end" fill="#fff" font-size="11" font-weight="600">ironmark</text>
<rect x="170" y="1816" width="493" height="20" rx="3" fill="#252525"/>
<rect x="170" y="1816" width="493.0" height="20" rx="3" fill="#e8590c"/>
<text x="746" y="1828" text-anchor="end" fill="#e0e0e0" font-size="11">37.9 µs</text>
<text x="828" y="1828" text-anchor="end" fill="#666" font-size="10">207.1 MB/s</text>
<text x="154" y="1856" text-anchor="end" fill="#777" font-size="11" font-weight="400">pulldown-cmark</text>
<rect x="170" y="1844" width="493" height="20" rx="3" fill="#252525"/>
<rect x="170" y="1844" width="367.0" height="20" rx="3" fill="#1971c2"/>
<text x="746" y="1856" text-anchor="end" fill="#e0e0e0" font-size="11">50.9 µs</text>
<text x="828" y="1856" text-anchor="end" fill="#666" font-size="10">154.1 MB/s</text>
<text x="154" y="1884" text-anchor="end" fill="#777" font-size="11" font-weight="400">markdown-rs</text>
<rect x="170" y="1872" width="493" height="20" rx="3" fill="#252525"/>
<rect x="170" y="1872" width="65.7" height="20" rx="3" fill="#c2185b"/>
<text x="746" y="1884" text-anchor="end" fill="#e0e0e0" font-size="11">284.5 µs</text>
<text x="828" y="1884" text-anchor="end" fill="#666" font-size="10">27.6 MB/s</text>
<text x="154" y="1912" text-anchor="end" fill="#777" font-size="11" font-weight="400">comrak</text>
<rect x="170" y="1900" width="493" height="20" rx="3" fill="#252525"/>
<rect x="170" y="1900" width="47.3" height="20" rx="3" fill="#2f9e44"/>
<text x="746" y="1912" text-anchor="end" fill="#e0e0e0" font-size="11">395.3 µs</text>
<text x="828" y="1912" text-anchor="end" fill="#666" font-size="10">19.9 MB/s</text>
<text x="32" y="1974" fill="#ccc" font-size="14" font-weight="600">Inline-heavy</text>
<rect x="32" y="1984" width="816" height="166" rx="6" fill="#1a1a1a" stroke="#2a2a2a"/>
<text x="48" y="2012" fill="#aaa" font-size="12" font-weight="500">inline_heavy (16.7 KB)</text>
<rect x="675.5" y="2000" width="156.5" height="18" rx="3" fill="none" stroke="#e8590c" stroke-opacity="0.6"/>
<text x="683.5" y="2011.5" fill="#fff" font-size="10" font-weight="600">ironmark</text>
<text x="741.1" y="2011.5" fill="#8f8" font-size="9.5">1.6x faster</text>
<text x="154" y="2042" text-anchor="end" fill="#fff" font-size="11" font-weight="600">ironmark</text>
<rect x="170" y="2030" width="493" height="20" rx="3" fill="#252525"/>
<rect x="170" y="2030" width="493.0" height="20" rx="3" fill="#e8590c"/>
<text x="746" y="2042" text-anchor="end" fill="#e0e0e0" font-size="11">85.3 µs</text>
<text x="828" y="2042" text-anchor="end" fill="#666" font-size="10">191.1 MB/s</text>
<text x="154" y="2070" text-anchor="end" fill="#777" font-size="11" font-weight="400">pulldown-cmark</text>
<rect x="170" y="2058" width="493" height="20" rx="3" fill="#252525"/>
<rect x="170" y="2058" width="307.7" height="20" rx="3" fill="#1971c2"/>
<text x="746" y="2070" text-anchor="end" fill="#e0e0e0" font-size="11">136.6 µs</text>
<text x="828" y="2070" text-anchor="end" fill="#666" font-size="10">119.3 MB/s</text>
<text x="154" y="2098" text-anchor="end" fill="#777" font-size="11" font-weight="400">comrak</text>
<rect x="170" y="2086" width="493" height="20" rx="3" fill="#252525"/>
<rect x="170" y="2086" width="91.4" height="20" rx="3" fill="#2f9e44"/>
<text x="746" y="2098" text-anchor="end" fill="#e0e0e0" font-size="11">460.1 µs</text>
<text x="828" y="2098" text-anchor="end" fill="#666" font-size="10">35.4 MB/s</text>
<text x="154" y="2126" text-anchor="end" fill="#777" font-size="11" font-weight="400">markdown-rs</text>
<rect x="170" y="2114" width="493" height="20" rx="3" fill="#252525"/>
<rect x="170" y="2114" width="17.2" height="20" rx="3" fill="#c2185b"/>
<text x="746" y="2126" text-anchor="end" fill="#e0e0e0" font-size="11">2.44 ms</text>
<text x="828" y="2126" text-anchor="end" fill="#666" font-size="10">6.7 MB/s</text></g>
<g transform="translate(0,2254)"><text x="440" y="24" text-anchor="middle" fill="#fff" font-size="20" font-weight="700">WASM (Node.js)</text>
<text x="440" y="46" text-anchor="middle" fill="#888" font-size="12">ironmark vs markdown-wasm vs md4w — median of 500 iterations</text>
<rect x="230" y="60" width="10" height="10" rx="2" fill="#e8590c"/>
<text x="246" y="69" fill="#aaa" font-size="11">ironmark</text>
<rect x="370" y="60" width="10" height="10" rx="2" fill="#7048e8"/>
<text x="386" y="69" fill="#aaa" font-size="11">markdown-wasm</text>
<rect x="510" y="60" width="10" height="10" rx="2" fill="#0ea5e9"/>
<text x="526" y="69" fill="#aaa" font-size="11">md4w</text>
<text x="32" y="114" fill="#ccc" font-size="14" font-weight="600">CommonMark Spec</text>
<rect x="32" y="124" width="816" height="138" rx="6" fill="#1a1a1a" stroke="#2a2a2a"/>
<text x="48" y="152" fill="#aaa" font-size="12" font-weight="500">spec (all examples) (15.1 KB)</text>
<rect x="675.5" y="140" width="156.5" height="18" rx="3" fill="none" stroke="#e8590c" stroke-opacity="0.6"/>
<text x="683.5" y="151.5" fill="#fff" font-size="10" font-weight="600">ironmark</text>
<text x="741.1" y="151.5" fill="#8f8" font-size="9.5">1.3x faster</text>
<text x="154" y="182" text-anchor="end" fill="#fff" font-size="11" font-weight="600">ironmark</text>
<rect x="170" y="170" width="493" height="20" rx="3" fill="#252525"/>
<rect x="170" y="170" width="493.0" height="20" rx="3" fill="#e8590c"/>
<text x="746" y="182" text-anchor="end" fill="#e0e0e0" font-size="11">304.3 µs</text>
<text x="828" y="182" text-anchor="end" fill="#666" font-size="10">48.5 MB/s</text>
<text x="154" y="210" text-anchor="end" fill="#777" font-size="11" font-weight="400">md4w</text>
<rect x="170" y="198" width="493" height="20" rx="3" fill="#252525"/>
<rect x="170" y="198" width="392.7" height="20" rx="3" fill="#0ea5e9"/>
<text x="746" y="210" text-anchor="end" fill="#e0e0e0" font-size="11">382.0 µs</text>
<text x="828" y="210" text-anchor="end" fill="#666" font-size="10">38.6 MB/s</text>
<text x="154" y="238" text-anchor="end" fill="#777" font-size="11" font-weight="400">markdown-wasm</text>
<rect x="170" y="226" width="493" height="20" rx="3" fill="#252525"/>
<rect x="170" y="226" width="376.1" height="20" rx="3" fill="#7048e8"/>
<text x="746" y="238" text-anchor="end" fill="#e0e0e0" font-size="11">398.9 µs</text>
<text x="828" y="238" text-anchor="end" fill="#666" font-size="10">37.0 MB/s</text>
<text x="32" y="300" fill="#ccc" font-size="14" font-weight="600">Document Sizes</text>
<rect x="32" y="310" width="816" height="138" rx="6" fill="#1a1a1a" stroke="#2a2a2a"/>
<text x="48" y="338" fill="#aaa" font-size="12" font-weight="500">mixed 1000 B (1000 B)</text>
<rect x="675.5" y="326" width="156.5" height="18" rx="3" fill="none" stroke="#e8590c" stroke-opacity="0.6"/>
<text x="683.5" y="337.5" fill="#fff" font-size="10" font-weight="600">ironmark</text>
<text x="741.1" y="337.5" fill="#8f8" font-size="9.5">1.4x faster</text>
<text x="154" y="368" text-anchor="end" fill="#fff" font-size="11" font-weight="600">ironmark</text>
<rect x="170" y="356" width="493" height="20" rx="3" fill="#252525"/>
<rect x="170" y="356" width="493.0" height="20" rx="3" fill="#e8590c"/>
<text x="746" y="368" text-anchor="end" fill="#e0e0e0" font-size="11">11.0 µs</text>
<text x="828" y="368" text-anchor="end" fill="#666" font-size="10">86.4 MB/s</text>
<text x="154" y="396" text-anchor="end" fill="#777" font-size="11" font-weight="400">markdown-wasm</text>
<rect x="170" y="384" width="493" height="20" rx="3" fill="#252525"/>
<rect x="170" y="384" width="359.9" height="20" rx="3" fill="#7048e8"/>
<text x="746" y="396" text-anchor="end" fill="#e0e0e0" font-size="11">15.1 µs</text>
<text x="828" y="396" text-anchor="end" fill="#666" font-size="10">63.1 MB/s</text>
<text x="154" y="424" text-anchor="end" fill="#777" font-size="11" font-weight="400">md4w</text>
<rect x="170" y="412" width="493" height="20" rx="3" fill="#252525"/>
<rect x="170" y="412" width="350.3" height="20" rx="3" fill="#0ea5e9"/>
<text x="746" y="424" text-anchor="end" fill="#e0e0e0" font-size="11">15.5 µs</text>
<text x="828" y="424" text-anchor="end" fill="#666" font-size="10">61.4 MB/s</text>
<rect x="32" y="456" width="816" height="138" rx="6" fill="#1a1a1a" stroke="#2a2a2a"/>
<text x="48" y="484" fill="#aaa" font-size="12" font-weight="500">mixed 9.8 KB (9.8 KB)</text>
<rect x="675.5" y="472" width="156.5" height="18" rx="3" fill="none" stroke="#e8590c" stroke-opacity="0.6"/>
<text x="683.5" y="483.5" fill="#fff" font-size="10" font-weight="600">ironmark</text>
<text x="741.1" y="483.5" fill="#8f8" font-size="9.5">1.3x faster</text>
<text x="154" y="514" text-anchor="end" fill="#fff" font-size="11" font-weight="600">ironmark</text>
<rect x="170" y="502" width="493" height="20" rx="3" fill="#252525"/>
<rect x="170" y="502" width="493.0" height="20" rx="3" fill="#e8590c"/>
<text x="746" y="514" text-anchor="end" fill="#e0e0e0" font-size="11">98.8 µs</text>
<text x="828" y="514" text-anchor="end" fill="#666" font-size="10">96.5 MB/s</text>
<text x="154" y="542" text-anchor="end" fill="#777" font-size="11" font-weight="400">md4w</text>
<rect x="170" y="530" width="493" height="20" rx="3" fill="#252525"/>
<rect x="170" y="530" width="367.5" height="20" rx="3" fill="#0ea5e9"/>
<text x="746" y="542" text-anchor="end" fill="#e0e0e0" font-size="11">132.5 µs</text>
<text x="828" y="542" text-anchor="end" fill="#666" font-size="10">72.0 MB/s</text>
<text x="154" y="570" text-anchor="end" fill="#777" font-size="11" font-weight="400">markdown-wasm</text>
<rect x="170" y="558" width="493" height="20" rx="3" fill="#252525"/>
<rect x="170" y="558" width="363.1" height="20" rx="3" fill="#7048e8"/>
<text x="746" y="570" text-anchor="end" fill="#e0e0e0" font-size="11">134.1 µs</text>
<text x="828" y="570" text-anchor="end" fill="#666" font-size="10">71.1 MB/s</text>
<rect x="32" y="602" width="816" height="138" rx="6" fill="#1a1a1a" stroke="#2a2a2a"/>
<text x="48" y="630" fill="#aaa" font-size="12" font-weight="500">mixed 97.7 KB (97.7 KB)</text>
<rect x="675.5" y="618" width="156.5" height="18" rx="3" fill="none" stroke="#e8590c" stroke-opacity="0.6"/>
<text x="683.5" y="629.5" fill="#fff" font-size="10" font-weight="600">ironmark</text>
<text x="741.1" y="629.5" fill="#8f8" font-size="9.5">1.3x faster</text>
<text x="154" y="660" text-anchor="end" fill="#fff" font-size="11" font-weight="600">ironmark</text>
<rect x="170" y="648" width="493" height="20" rx="3" fill="#252525"/>
<rect x="170" y="648" width="493.0" height="20" rx="3" fill="#e8590c"/>
<text x="746" y="660" text-anchor="end" fill="#e0e0e0" font-size="11">1.03 ms</text>
<text x="828" y="660" text-anchor="end" fill="#666" font-size="10">93.0 MB/s</text>
<text x="154" y="688" text-anchor="end" fill="#777" font-size="11" font-weight="400">md4w</text>
<rect x="170" y="676" width="493" height="20" rx="3" fill="#252525"/>
<rect x="170" y="676" width="376.1" height="20" rx="3" fill="#0ea5e9"/>
<text x="746" y="688" text-anchor="end" fill="#e0e0e0" font-size="11">1.34 ms</text>
<text x="828" y="688" text-anchor="end" fill="#666" font-size="10">71.0 MB/s</text>
<text x="154" y="716" text-anchor="end" fill="#777" font-size="11" font-weight="400">markdown-wasm</text>
<rect x="170" y="704" width="493" height="20" rx="3" fill="#252525"/>
<rect x="170" y="704" width="363.8" height="20" rx="3" fill="#7048e8"/>
<text x="746" y="716" text-anchor="end" fill="#e0e0e0" font-size="11">1.39 ms</text>
<text x="828" y="716" text-anchor="end" fill="#666" font-size="10">68.7 MB/s</text>
<text x="32" y="778" fill="#ccc" font-size="14" font-weight="600">Block Types</text>
<rect x="32" y="788" width="816" height="138" rx="6" fill="#1a1a1a" stroke="#2a2a2a"/>
<text x="48" y="816" fill="#aaa" font-size="12" font-weight="500">headings (10.3 KB)</text>
<rect x="675.5" y="804" width="156.5" height="18" rx="3" fill="none" stroke="#e8590c" stroke-opacity="0.6"/>
<text x="683.5" y="815.5" fill="#fff" font-size="10" font-weight="600">ironmark</text>
<text x="741.1" y="815.5" fill="#8f8" font-size="9.5">1.5x faster</text>
<text x="154" y="846" text-anchor="end" fill="#fff" font-size="11" font-weight="600">ironmark</text>
<rect x="170" y="834" width="493" height="20" rx="3" fill="#252525"/>
<rect x="170" y="834" width="493.0" height="20" rx="3" fill="#e8590c"/>
<text x="746" y="846" text-anchor="end" fill="#e0e0e0" font-size="11">62.7 µs</text>
<text x="828" y="846" text-anchor="end" fill="#666" font-size="10">160.9 MB/s</text>
<text x="154" y="874" text-anchor="end" fill="#777" font-size="11" font-weight="400">markdown-wasm</text>
<rect x="170" y="862" width="493" height="20" rx="3" fill="#252525"/>
<rect x="170" y="862" width="331.5" height="20" rx="3" fill="#7048e8"/>
<text x="746" y="874" text-anchor="end" fill="#e0e0e0" font-size="11">93.2 µs</text>
<text x="828" y="874" text-anchor="end" fill="#666" font-size="10">108.2 MB/s</text>
<text x="154" y="902" text-anchor="end" fill="#777" font-size="11" font-weight="400">md4w</text>
<rect x="170" y="890" width="493" height="20" rx="3" fill="#252525"/>
<rect x="170" y="890" width="317.6" height="20" rx="3" fill="#0ea5e9"/>
<text x="746" y="902" text-anchor="end" fill="#e0e0e0" font-size="11">97.3 µs</text>
<text x="828" y="902" text-anchor="end" fill="#666" font-size="10">103.7 MB/s</text>
<rect x="32" y="934" width="816" height="138" rx="6" fill="#1a1a1a" stroke="#2a2a2a"/>
<text x="48" y="962" fill="#aaa" font-size="12" font-weight="500">nested lists (2.9 KB)</text>
<rect x="701.5" y="950" width="130.5" height="18" rx="3" fill="none" stroke="#0ea5e9" stroke-opacity="0.6"/>
<text x="709.5" y="961.5" fill="#fff" font-size="10" font-weight="600">md4w</text>
<text x="742.3" y="961.5" fill="#8f8" font-size="9.5">1.0x faster</text>
<text x="154" y="992" text-anchor="end" fill="#fff" font-size="11" font-weight="600">md4w</text>
<rect x="170" y="980" width="493" height="20" rx="3" fill="#252525"/>
<rect x="170" y="980" width="493.0" height="20" rx="3" fill="#0ea5e9"/>
<text x="746" y="992" text-anchor="end" fill="#e0e0e0" font-size="11">17.4 µs</text>
<text x="828" y="992" text-anchor="end" fill="#666" font-size="10">161.0 MB/s</text>
<text x="154" y="1020" text-anchor="end" fill="#777" font-size="11" font-weight="400">ironmark</text>
<rect x="170" y="1008" width="493" height="20" rx="3" fill="#252525"/>
<rect x="170" y="1008" width="472.7" height="20" rx="3" fill="#e8590c"/>
<text x="746" y="1020" text-anchor="end" fill="#e0e0e0" font-size="11">18.2 µs</text>
<text x="828" y="1020" text-anchor="end" fill="#666" font-size="10">154.3 MB/s</text>
<text x="154" y="1048" text-anchor="end" fill="#777" font-size="11" font-weight="400">markdown-wasm</text>
<rect x="170" y="1036" width="493" height="20" rx="3" fill="#252525"/>
<rect x="170" y="1036" width="471.6" height="20" rx="3" fill="#7048e8"/>
<text x="746" y="1048" text-anchor="end" fill="#e0e0e0" font-size="11">18.2 µs</text>
<text x="828" y="1048" text-anchor="end" fill="#666" font-size="10">154.0 MB/s</text>
<rect x="32" y="1080" width="816" height="138" rx="6" fill="#1a1a1a" stroke="#2a2a2a"/>
<text x="48" y="1108" fill="#aaa" font-size="12" font-weight="500">table (100x10) (8.0 KB)</text>
<rect x="675.5" y="1096" width="156.5" height="18" rx="3" fill="none" stroke="#e8590c" stroke-opacity="0.6"/>
<text x="683.5" y="1107.5" fill="#fff" font-size="10" font-weight="600">ironmark</text>
<text x="741.1" y="1107.5" fill="#8f8" font-size="9.5">1.9x faster</text>
<text x="154" y="1138" text-anchor="end" fill="#fff" font-size="11" font-weight="600">ironmark</text>
<rect x="170" y="1126" width="493" height="20" rx="3" fill="#252525"/>
<rect x="170" y="1126" width="493.0" height="20" rx="3" fill="#e8590c"/>
<text x="746" y="1138" text-anchor="end" fill="#e0e0e0" font-size="11">61.8 µs</text>
<text x="828" y="1138" text-anchor="end" fill="#666" font-size="10">127.0 MB/s</text>
<text x="154" y="1166" text-anchor="end" fill="#777" font-size="11" font-weight="400">md4w</text>
<rect x="170" y="1154" width="493" height="20" rx="3" fill="#252525"/>
<rect x="170" y="1154" width="257.9" height="20" rx="3" fill="#0ea5e9"/>
<text x="746" y="1166" text-anchor="end" fill="#e0e0e0" font-size="11">118.2 µs</text>
<text x="828" y="1166" text-anchor="end" fill="#666" font-size="10">66.4 MB/s</text>
<text x="154" y="1194" text-anchor="end" fill="#777" font-size="11" font-weight="400">markdown-wasm</text>
<rect x="170" y="1182" width="493" height="20" rx="3" fill="#252525"/>
<rect x="170" y="1182" width="201.6" height="20" rx="3" fill="#7048e8"/>
<text x="746" y="1194" text-anchor="end" fill="#e0e0e0" font-size="11">151.2 µs</text>
<text x="828" y="1194" text-anchor="end" fill="#666" font-size="10">51.9 MB/s</text>
<rect x="32" y="1226" width="816" height="138" rx="6" fill="#1a1a1a" stroke="#2a2a2a"/>
<text x="48" y="1254" fill="#aaa" font-size="12" font-weight="500">code blocks (5.2 KB)</text>
<rect x="675.5" y="1242" width="156.5" height="18" rx="3" fill="none" stroke="#e8590c" stroke-opacity="0.6"/>
<text x="683.5" y="1253.5" fill="#fff" font-size="10" font-weight="600">ironmark</text>
<text x="741.1" y="1253.5" fill="#8f8" font-size="9.5">1.0x faster</text>
<text x="154" y="1284" text-anchor="end" fill="#fff" font-size="11" font-weight="600">ironmark</text>
<rect x="170" y="1272" width="493" height="20" rx="3" fill="#252525"/>
<rect x="170" y="1272" width="493.0" height="20" rx="3" fill="#e8590c"/>
<text x="746" y="1284" text-anchor="end" fill="#e0e0e0" font-size="11">38.5 µs</text>
<text x="828" y="1284" text-anchor="end" fill="#666" font-size="10">130.9 MB/s</text>
<text x="154" y="1312" text-anchor="end" fill="#777" font-size="11" font-weight="400">markdown-wasm</text>
<rect x="170" y="1300" width="493" height="20" rx="3" fill="#252525"/>
<rect x="170" y="1300" width="486.2" height="20" rx="3" fill="#7048e8"/>
<text x="746" y="1312" text-anchor="end" fill="#e0e0e0" font-size="11">39.1 µs</text>
<text x="828" y="1312" text-anchor="end" fill="#666" font-size="10">129.1 MB/s</text>
<text x="154" y="1340" text-anchor="end" fill="#777" font-size="11" font-weight="400">md4w</text>
<rect x="170" y="1328" width="493" height="20" rx="3" fill="#252525"/>
<rect x="170" y="1328" width="485.1" height="20" rx="3" fill="#0ea5e9"/>
<text x="746" y="1340" text-anchor="end" fill="#e0e0e0" font-size="11">39.2 µs</text>
<text x="828" y="1340" text-anchor="end" fill="#666" font-size="10">128.8 MB/s</text>
<text x="32" y="1402" fill="#ccc" font-size="14" font-weight="600">Inline-heavy</text>
<rect x="32" y="1412" width="816" height="138" rx="6" fill="#1a1a1a" stroke="#2a2a2a"/>
<text x="48" y="1440" fill="#aaa" font-size="12" font-weight="500">inline heavy (16.7 KB)</text>
<rect x="675.5" y="1428" width="156.5" height="18" rx="3" fill="none" stroke="#e8590c" stroke-opacity="0.6"/>
<text x="683.5" y="1439.5" fill="#fff" font-size="10" font-weight="600">ironmark</text>
<text x="741.1" y="1439.5" fill="#8f8" font-size="9.5">1.4x faster</text>
<text x="154" y="1470" text-anchor="end" fill="#fff" font-size="11" font-weight="600">ironmark</text>
<rect x="170" y="1458" width="493" height="20" rx="3" fill="#252525"/>
<rect x="170" y="1458" width="493.0" height="20" rx="3" fill="#e8590c"/>
<text x="746" y="1470" text-anchor="end" fill="#e0e0e0" font-size="11">157.3 µs</text>
<text x="828" y="1470" text-anchor="end" fill="#666" font-size="10">103.6 MB/s</text>
<text x="154" y="1498" text-anchor="end" fill="#777" font-size="11" font-weight="400">md4w</text>
<rect x="170" y="1486" width="493" height="20" rx="3" fill="#252525"/>
<rect x="170" y="1486" width="345.8" height="20" rx="3" fill="#0ea5e9"/>
<text x="746" y="1498" text-anchor="end" fill="#e0e0e0" font-size="11">224.2 µs</text>
<text x="828" y="1498" text-anchor="end" fill="#666" font-size="10">72.7 MB/s</text>
<text x="154" y="1526" text-anchor="end" fill="#777" font-size="11" font-weight="400">markdown-wasm</text>
<rect x="170" y="1514" width="493" height="20" rx="3" fill="#252525"/>
<rect x="170" y="1514" width="340.7" height="20" rx="3" fill="#7048e8"/>
<text x="746" y="1526" text-anchor="end" fill="#e0e0e0" font-size="11">227.6 µs</text>
<text x="828" y="1526" text-anchor="end" fill="#666" font-size="10">71.6 MB/s</text></g>
<text x="440" y="3848" text-anchor="middle" fill="#666" font-size="10">Bars show throughput (longer is faster). Generated on 2026-03-01.</text>
</svg>